<svg id="cross2" enable-background="new 0 0 300 300" height="512" viewBox="0 0 300 300" width="512" xmlns="http://www.w3.org/2000/svg"><g><circle cx="128" cy="134" fill="#efefd2" r="92"/><g fill="#4c241d"><circle cx="58" cy="56" r="4.529"/><circle cx="122" cy="64" r="4.529"/><circle cx="242" cy="252" r="4.529"/></g><g><path d="m260 138h-84v-84h-32v84h-84v32h84v84h32v-84h84z" fill="#e66353"/><path d="m176 258h-32c-2.209 0-4-1.791-4-4v-80h-80c-2.209 0-4-1.791-4-4v-32c0-2.209 1.791-4 4-4h80v-80c0-2.209 1.791-4 4-4h32c2.209 0 4 1.791 4 4v80h80c2.209 0 4 1.791 4 4v32c0 2.209-1.791 4-4 4h-80v80c0 2.209-1.791 4-4 4zm-28-8h24v-80c0-2.209 1.791-4 4-4h80v-24h-80c-2.209 0-4-1.791-4-4v-80h-24v80c0 2.209-1.791 4-4 4h-80v24h80c2.209 0 4 1.791 4 4z" fill="#4c241d"/></g><g><circle cx="108" cy="102" fill="#ffce56" r="20"/><path d="m108 126c-13.234 0-24-10.766-24-24s10.766-24 24-24 24 10.766 24 24-10.766 24-24 24zm0-40c-8.822 0-16 7.178-16 16s7.178 16 16 16 16-7.178 16-16-7.178-16-16-16z" fill="#4c241d"/></g><g><circle cx="212" cy="102" fill="#ffce56" r="20"/><path d="m212 126c-13.234 0-24-10.766-24-24s10.766-24 24-24 24 10.766 24 24-10.766 24-24 24zm0-40c-8.822 0-16 7.178-16 16s7.178 16 16 16 16-7.178 16-16-7.178-16-16-16z" fill="#4c241d"/></g><g><circle cx="108" cy="206" fill="#ffce56" r="20"/><path d="m108 230c-13.234 0-24-10.766-24-24s10.766-24 24-24 24 10.766 24 24-10.766 24-24 24zm0-40c-8.822 0-16 7.178-16 16s7.178 16 16 16 16-7.178 16-16-7.178-16-16-16z" fill="#4c241d"/></g><g><circle cx="212" cy="206" fill="#ffce56" r="20"/><path d="m212 230c-13.234 0-24-10.766-24-24s10.766-24 24-24 24 10.766 24 24-10.766 24-24 24zm0-40c-8.822 0-16 7.178-16 16s7.178 16 16 16 16-7.178 16-16-7.178-16-16-16z" fill="#4c241d"/></g><path d="m176 174c-2.209 0-4-1.791-4-4v-8c0-2.209 1.791-4 4-4s4 1.791 4 4v8c0 2.209-1.791 4-4 4z" fill="#4c241d"/><path d="m144 174c-2.209 0-4-1.791-4-4v-8c0-2.209 1.791-4 4-4s4 1.791 4 4v8c0 2.209-1.791 4-4 4z" fill="#4c241d"/></g></svg>