<svg id="cross3" enable-background="new 0 0 300 300" height="512" viewBox="0 0 300 300" width="512" xmlns="http://www.w3.org/2000/svg"><g><circle cx="126" cy="124" fill="#efefd2" r="92"/><g fill="#4c241d"><path d="m90 80c-8.824 0-16-7.176-16-16s7.176-16 16-16 16 7.176 16 16-7.176 16-16 16zm0-24c-4.41 0-8 3.59-8 8s3.59 8 8 8 8-3.59 8-8-3.59-8-8-8z"/><circle cx="84" cy="110" r="4.529"/><circle cx="56" cy="82" r="4.529"/></g><g><path d="m262 148h-8v-8h-76v-76h-8v-8h-24v8h-8v76h-76v8h-8v24h8v8h76v76h8v8h24v-8h8v-76h76v-8h8z" fill="#e66353"/><path d="m170 268h-24c-2.211 0-4-1.789-4-4v-4h-4c-2.211 0-4-1.789-4-4v-72h-72c-2.211 0-4-1.789-4-4v-4h-4c-2.211 0-4-1.789-4-4v-24c0-2.211 1.789-4 4-4h4v-4c0-2.211 1.789-4 4-4h72v-72c0-2.211 1.789-4 4-4h4v-4c0-2.211 1.789-4 4-4h24c2.211 0 4 1.789 4 4v4h4c2.211 0 4 1.789 4 4v72h72c2.211 0 4 1.789 4 4v4h4c2.211 0 4 1.789 4 4v24c0 2.211-1.789 4-4 4h-4v4c0 2.211-1.789 4-4 4h-72v72c0 2.211-1.789 4-4 4h-4v4c0 2.211-1.789 4-4 4zm-20-8h16v-4c0-2.211 1.789-4 4-4h4v-72c0-2.211 1.789-4 4-4h72v-4c0-2.211 1.789-4 4-4h4v-16h-4c-2.211 0-4-1.789-4-4v-4h-72c-2.211 0-4-1.789-4-4v-72h-4c-2.211 0-4-1.789-4-4v-4h-16v4c0 2.211-1.789 4-4 4h-4v72c0 2.211-1.789 4-4 4h-72v4c0 2.211-1.789 4-4 4h-4v16h4c2.211 0 4 1.789 4 4v4h72c2.211 0 4 1.789 4 4v72h4c2.211 0 4 1.789 4 4z" fill="#4c241d"/></g><g><path d="m114 116h88v88h-88z" fill="#ffce56" transform="matrix(.707 -.707 .707 .707 -66.86 158.586)"/><path d="m158 226.227c-1.023 0-2.047-.391-2.828-1.172l-62.227-62.227c-1.562-1.562-1.562-4.094 0-5.656l62.227-62.227c1.562-1.562 4.094-1.562 5.656 0l62.227 62.227c1.562 1.562 1.562 4.094 0 5.656l-62.227 62.227c-.781.781-1.805 1.172-2.828 1.172zm-56.57-66.227 56.57 56.57 56.57-56.57-56.57-56.57z" fill="#4c241d"/></g></g></svg>