<svg id="cut" enable-background="new 0 0 300 300" height="512" viewBox="0 0 300 300" width="512" xmlns="http://www.w3.org/2000/svg"><g><circle cx="174" cy="168" fill="#efefd2" r="92"/><g><path d="m58 236v-176h176z" fill="#e66353"/><path d="m58 240c-.516 0-1.035-.1-1.531-.305-1.494-.619-2.469-2.078-2.469-3.695v-176c0-2.209 1.791-4 4-4h176c1.617 0 3.076.975 3.695 2.469.619 1.496.277 3.215-.867 4.359l-176 176c-.766.766-1.787 1.172-2.828 1.172zm4-176v162.344l162.344-162.344z" fill="#4c241d"/></g><g><path d="m98 196 96-96h-96z" fill="#a9ba5a"/><path d="m98 200c-.516 0-1.035-.1-1.531-.305-1.494-.619-2.469-2.078-2.469-3.695v-96c0-2.209 1.791-4 4-4h96c1.617 0 3.076.975 3.695 2.469.619 1.496.277 3.215-.867 4.359l-96 96c-.766.766-1.787 1.172-2.828 1.172zm4-96v82.344l82.344-82.344z" fill="#4c241d"/></g><g><path d="m98 196 96-96v96z" fill="#6b4f5b"/><path d="m194 200h-96c-1.617 0-3.076-.975-3.695-2.469-.619-1.496-.277-3.215.867-4.359l96-96c1.143-1.145 2.859-1.488 4.359-.867 1.494.619 2.469 2.078 2.469 3.695v96c0 2.209-1.791 4-4 4zm-86.344-8h82.344v-82.344z" fill="#4c241d"/></g><g fill="#4c241d"><path d="m254 264h-8c-2.209 0-4-1.791-4-4s1.791-4 4-4h4v-4c0-2.209 1.791-4 4-4s4 1.791 4 4v8c0 2.209-1.791 4-4 4z"/><path d="m230.615 264h-15.385c-2.209 0-4-1.791-4-4s1.791-4 4-4h15.385c2.209 0 4 1.791 4 4s-1.791 4-4 4zm-30.769 0h-15.385c-2.209 0-4-1.791-4-4s1.791-4 4-4h15.385c2.209 0 4 1.791 4 4s-1.791 4-4 4zm-30.77 0h-15.385c-2.209 0-4-1.791-4-4s1.791-4 4-4h15.385c2.209 0 4 1.791 4 4s-1.791 4-4 4zm-30.769 0h-15.383c-2.209 0-4-1.791-4-4s1.791-4 4-4h15.383c2.209 0 4 1.791 4 4s-1.791 4-4 4zm-30.768 0h-15.385c-2.209 0-4-1.791-4-4s1.791-4 4-4h15.385c2.209 0 4 1.791 4 4s-1.791 4-4 4zm-30.769 0h-15.385c-2.209 0-4-1.791-4-4s1.791-4 4-4h15.385c2.209 0 4 1.791 4 4s-1.791 4-4 4z"/><path d="m46 264h-8c-2.209 0-4-1.791-4-4v-8c0-2.209 1.791-4 4-4s4 1.791 4 4v4h4c2.209 0 4 1.791 4 4s-1.791 4-4 4z"/><path d="m38 240.309c-2.209 0-4-1.791-4-4v-15.691c0-2.209 1.791-4 4-4s4 1.791 4 4v15.691c0 2.209-1.791 4-4 4zm0-31.385c-2.209 0-4-1.791-4-4v-15.691c0-2.209 1.791-4 4-4s4 1.791 4 4v15.691c0 2.209-1.791 4-4 4zm0-31.385c-2.209 0-4-1.791-4-4v-15.691c0-2.209 1.791-4 4-4s4 1.791 4 4v15.691c0 2.209-1.791 4-4 4zm0-31.385c-2.209 0-4-1.791-4-4v-15.691c0-2.209 1.791-4 4-4s4 1.791 4 4v15.691c0 2.209-1.791 4-4 4zm0-31.384c-2.209 0-4-1.791-4-4v-15.692c0-2.209 1.791-4 4-4s4 1.791 4 4v15.691c0 2.21-1.791 4.001-4 4.001zm0-31.385c-2.209 0-4-1.791-4-4v-15.692c0-2.209 1.791-4 4-4s4 1.791 4 4v15.691c0 2.21-1.791 4.001-4 4.001z"/><path d="m38 52c-2.209 0-4-1.791-4-4v-8c0-2.209 1.791-4 4-4h8c2.209 0 4 1.791 4 4s-1.791 4-4 4h-4v4c0 2.209-1.791 4-4 4z"/><path d="m230.615 44h-15.385c-2.209 0-4-1.791-4-4s1.791-4 4-4h15.385c2.209 0 4 1.791 4 4s-1.791 4-4 4zm-30.769 0h-15.385c-2.209 0-4-1.791-4-4s1.791-4 4-4h15.385c2.209 0 4 1.791 4 4s-1.791 4-4 4zm-30.77 0h-15.383c-2.209 0-4-1.791-4-4s1.791-4 4-4h15.383c2.209 0 4 1.791 4 4s-1.791 4-4 4zm-30.767 0h-15.385c-2.209 0-4-1.791-4-4s1.791-4 4-4h15.385c2.209 0 4 1.791 4 4s-1.791 4-4 4zm-30.77 0h-15.385c-2.209 0-4-1.791-4-4s1.791-4 4-4h15.385c2.209 0 4 1.791 4 4s-1.791 4-4 4zm-30.769 0h-15.385c-2.209 0-4-1.791-4-4s1.791-4 4-4h15.385c2.209 0 4 1.791 4 4s-1.791 4-4 4z"/><path d="m254 52c-2.209 0-4-1.791-4-4v-4h-4c-2.209 0-4-1.791-4-4s1.791-4 4-4h8c2.209 0 4 1.791 4 4v8c0 2.209-1.791 4-4 4z"/><path d="m254 240.307c-2.209 0-4-1.791-4-4v-15.691c0-2.209 1.791-4 4-4s4 1.791 4 4v15.691c0 2.209-1.791 4-4 4zm0-31.385c-2.209 0-4-1.791-4-4v-15.692c0-2.209 1.791-4 4-4s4 1.791 4 4v15.691c0 2.21-1.791 4.001-4 4.001zm0-31.385c-2.209 0-4-1.791-4-4v-15.691c0-2.209 1.791-4 4-4s4 1.791 4 4v15.691c0 2.209-1.791 4-4 4zm0-31.385c-2.209 0-4-1.791-4-4v-15.691c0-2.209 1.791-4 4-4s4 1.791 4 4v15.691c0 2.209-1.791 4-4 4zm0-31.384c-2.209 0-4-1.791-4-4v-15.692c0-2.209 1.791-4 4-4s4 1.791 4 4v15.691c0 2.21-1.791 4.001-4 4.001zm0-31.385c-2.209 0-4-1.791-4-4v-15.692c0-2.209 1.791-4 4-4s4 1.791 4 4v15.691c0 2.21-1.791 4.001-4 4.001z"/></g></g></svg>