<svg id="delete" enable-background="new 0 0 300 300" height="512" viewBox="0 0 300 300" width="512" xmlns="http://www.w3.org/2000/svg"><g><circle cx="172" cy="127.265" fill="#efefd2" r="92"/><g fill="#4c241d"><path d="m240 79.265c-8.824 0-16-7.178-16-16s7.176-16 16-16 16 7.178 16 16-7.176 16-16 16zm0-24c-4.41 0-8 3.588-8 8s3.59 8 8 8 8-3.588 8-8-3.59-8-8-8z"/><circle cx="214" cy="37.265" r="4.529"/><circle cx="182" cy="49.265" r="4.529"/></g><g><path d="m92 119.265h144v144h-144z" fill="#6b4f5b"/><path d="m236 267.265h-144c-2.211 0-4-1.791-4-4v-144c0-2.209 1.789-4 4-4h144c2.211 0 4 1.791 4 4v144c0 2.209-1.789 4-4 4zm-140-8h136v-136h-136z" fill="#4c241d"/></g><g><path d="m68 95.265h144v144h-144z" fill="#b5a19c"/><path d="m212 243.265h-144c-2.211 0-4-1.791-4-4v-144c0-2.209 1.789-4 4-4h144c2.211 0 4 1.791 4 4v144c0 2.209-1.789 4-4 4zm-140-8h136v-136h-136z" fill="#4c241d"/></g><g><path d="m40 67.265h144v144h-144z" fill="#ffce56"/><path d="m184 215.265h-144c-2.211 0-4-1.791-4-4v-144c0-2.209 1.789-4 4-4h144c2.211 0 4 1.791 4 4v144c0 2.209-1.789 4-4 4zm-140-8h136v-136h-136z" fill="#4c241d"/></g><g><path d="m137.456 96.838-25.456 25.456-25.456-25.456-16.97 16.971 25.455 25.456-25.455 25.456 16.97 16.97 25.456-25.456 25.456 25.456 16.97-16.97-25.455-25.456 25.455-25.456z" fill="#a9ba5a"/><path d="m137.457 185.691c-1.062 0-2.078-.422-2.828-1.172l-22.629-22.627-22.629 22.627c-.75.75-1.766 1.172-2.828 1.172-1.062 0-2.078-.422-2.828-1.172l-16.969-16.971c-1.562-1.562-1.562-4.094 0-5.656l22.629-22.627-22.629-22.627c-1.562-1.562-1.562-4.094 0-5.656l16.969-16.971c1.5-1.5 4.156-1.5 5.656 0l22.629 22.627 22.629-22.627c.75-.75 1.766-1.172 2.828-1.172 1.062 0 2.078.422 2.828 1.172l16.969 16.971c1.562 1.562 1.562 4.094 0 5.656l-22.629 22.627 22.629 22.627c1.562 1.562 1.562 4.094 0 5.656l-16.969 16.971c-.75.75-1.765 1.172-2.828 1.172zm-25.457-33.456c1.023 0 2.047.391 2.828 1.172l22.629 22.627 11.312-11.314-22.629-22.627c-.75-.75-1.172-1.768-1.172-2.828s.422-2.078 1.172-2.828l22.629-22.627-11.312-11.314-22.629 22.627c-1.562 1.562-4.094 1.562-5.656 0l-22.629-22.627-11.313 11.314 22.629 22.627c.75.75 1.172 1.768 1.172 2.828s-.422 2.078-1.172 2.828l-22.629 22.627 11.312 11.314 22.629-22.627c.782-.781 1.806-1.172 2.829-1.172z" fill="#4c241d"/></g><path d="m236 267.265c-1.023 0-2.047-.391-2.828-1.172l-52-52c-1.562-1.562-1.562-4.094 0-5.656s4.094-1.562 5.656 0l52 52c1.562 1.562 1.562 4.094 0 5.656-.781.781-1.805 1.172-2.828 1.172z" fill="#4c241d"/></g></svg>