<svg id="diamonds" enable-background="new 0 0 300 300" height="512" viewBox="0 0 300 300" width="512" xmlns="http://www.w3.org/2000/svg"><g><circle cx="128" cy="128" fill="#efefd2" r="92"/><g fill="#4c241d"><path d="m220 76c-8.822 0-16-7.176-16-16s7.178-16 16-16 16 7.176 16 16-7.178 16-16 16zm0-24c-4.412 0-8 3.59-8 8s3.588 8 8 8 8-3.59 8-8-3.588-8-8-8z"/><circle cx="226" cy="250" r="4.529"/><circle cx="82" cy="50" r="4.529"/><circle cx="78" cy="78" r="4.529"/></g><g><path d="m44 120h80v80h-80z" fill="#e66353" transform="matrix(.707 -.707 .707 .707 -88.534 106.26)"/><path d="m84 220.57c-1.061 0-2.078-.422-2.828-1.172l-56.568-56.57c-1.562-1.562-1.562-4.094 0-5.656l56.568-56.57c1.5-1.5 4.156-1.5 5.656 0l56.568 56.57c1.562 1.562 1.562 4.094 0 5.656l-56.568 56.57c-.75.75-1.767 1.172-2.828 1.172zm-50.912-60.57 50.912 50.914 50.912-50.914-50.912-50.914z" fill="#4c241d"/></g><g><path d="m61.373 137.373h45.255v45.255h-45.255z" fill="#ffce56" transform="matrix(.707 -.707 .707 .707 -88.534 106.26)"/><path d="m84 196c-1.023 0-2.047-.391-2.828-1.172l-32-32c-1.562-1.562-1.562-4.094 0-5.656l32-32c1.562-1.562 4.094-1.562 5.656 0l32 32c1.562 1.562 1.562 4.094 0 5.656l-32 32c-.781.781-1.805 1.172-2.828 1.172zm-26.344-36 26.344 26.344 26.344-26.344-26.344-26.344z" fill="#4c241d"/></g><g><path d="m176 120h80v80h-80z" fill="#e66353" transform="matrix(.707 -.707 .707 .707 -49.872 199.598)"/><path d="m216 220.57c-1.061 0-2.078-.422-2.828-1.172l-56.568-56.57c-1.562-1.562-1.562-4.094 0-5.656l56.568-56.57c1.5-1.5 4.156-1.5 5.656 0l56.568 56.57c1.562 1.562 1.562 4.094 0 5.656l-56.568 56.57c-.75.75-1.767 1.172-2.828 1.172zm-50.912-60.57 50.912 50.914 50.912-50.914-50.912-50.914z" fill="#4c241d"/></g><g><path d="m193.373 137.373h45.255v45.255h-45.255z" fill="#ffce56" transform="matrix(.707 -.707 .707 .707 -49.872 199.598)"/><path d="m216 196c-1.023 0-2.047-.391-2.828-1.172l-32-32c-1.562-1.562-1.562-4.094 0-5.656l32-32c1.562-1.562 4.094-1.562 5.656 0l32 32c1.562 1.562 1.562 4.094 0 5.656l-32 32c-.781.781-1.805 1.172-2.828 1.172zm-26.344-36 26.344 26.344 26.344-26.344-26.344-26.344z" fill="#4c241d"/></g><g><path d="m125.373 65.373h45.255v45.255h-45.255z" fill="#ffce56" transform="matrix(.707 -.707 .707 .707 -18.877 130.426)"/><path d="m148 124c-1.023 0-2.047-.391-2.828-1.172l-32-32c-1.562-1.562-1.562-4.094 0-5.656l32-32c1.562-1.562 4.094-1.562 5.656 0l32 32c1.562 1.562 1.562 4.094 0 5.656l-32 32c-.781.781-1.805 1.172-2.828 1.172zm-26.344-36 26.344 26.344 26.344-26.344-26.344-26.344z" fill="#4c241d"/></g><g><path d="m139.515 79.515h16.971v16.971h-16.971z" fill="#e66353" transform="matrix(.707 -.707 .707 .707 -18.877 130.426)"/><path d="m148 104c-1.023 0-2.047-.391-2.828-1.172l-12-12c-1.562-1.562-1.562-4.094 0-5.656l12-12c1.562-1.562 4.094-1.562 5.656 0l12 12c1.562 1.562 1.562 4.094 0 5.656l-12 12c-.781.781-1.805 1.172-2.828 1.172zm-6.344-16 6.344 6.344 6.344-6.344-6.344-6.344z" fill="#4c241d"/></g><g><path d="m125.373 205.373h45.255v45.255h-45.255z" fill="#ffce56" transform="matrix(.707 -.707 .707 .707 -117.872 171.432)"/><path d="m148 264c-1.023 0-2.047-.391-2.828-1.172l-32-32c-1.562-1.562-1.562-4.094 0-5.656l32-32c1.562-1.562 4.094-1.562 5.656 0l32 32c1.562 1.562 1.562 4.094 0 5.656l-32 32c-.781.781-1.805 1.172-2.828 1.172zm-26.344-36 26.344 26.344 26.344-26.344-26.344-26.344z" fill="#4c241d"/></g><g><path d="m139.515 219.515h16.971v16.971h-16.971z" fill="#e66353" transform="matrix(.707 -.707 .707 .707 -117.872 171.432)"/><path d="m148 244c-1.023 0-2.047-.391-2.828-1.172l-12-12c-1.562-1.562-1.562-4.094 0-5.656l12-12c1.562-1.562 4.094-1.562 5.656 0l12 12c1.562 1.562 1.562 4.094 0 5.656l-12 12c-.781.781-1.805 1.172-2.828 1.172zm-6.344-16 6.344 6.344 6.344-6.344-6.344-6.344z" fill="#4c241d"/></g></g></svg>