<svg id="direction" enable-background="new 0 0 300 300" height="512" viewBox="0 0 300 300" width="512" xmlns="http://www.w3.org/2000/svg"><g><circle cx="164" cy="128" fill="#efefd2" r="92"/><g><path d="m168 56c-13.255 0-24 10.745-24 24v64c0-13.255-10.745-24-24-24s-24 10.745-24 24v80c0 13.255 10.745 24 24 24s24-10.745 24-24v-64c0 13.255 10.745 24 24 24s24-10.745 24-24v-80c0-13.255-10.745-24-24-24z" fill="#e66353"/><path d="m120 252c-15.439 0-28-12.561-28-28v-80c0-15.439 12.561-28 28-28 7.826 0 14.914 3.229 20 8.422v-44.422c0-15.439 12.561-28 28-28s28 12.561 28 28v80c0 15.439-12.561 28-28 28-7.826 0-14.914-3.229-20-8.422v44.422c0 15.439-12.561 28-28 28zm0-128c-11.027 0-20 8.973-20 20v80c0 11.027 8.973 20 20 20s20-8.973 20-20v-64c0-2.209 1.791-4 4-4s4 1.791 4 4c0 11.027 8.973 20 20 20s20-8.973 20-20v-80c0-11.027-8.973-20-20-20s-20 8.973-20 20v64c0 2.209-1.791 4-4 4s-4-1.791-4-4c0-11.027-8.973-20-20-20z" fill="#4c241d"/></g><g><path d="m216 148h-64c13.255 0 24-10.745 24-24s-10.745-24-24-24h-80c-13.255 0-24 10.745-24 24s10.745 24 24 24h64c-13.255 0-24 10.745-24 24s10.745 24 24 24h80c13.255 0 24-10.745 24-24s-10.745-24-24-24z" fill="#ffce56"/><path d="m216 200h-80c-15.439 0-28-12.561-28-28 0-7.826 3.229-14.914 8.422-20h-44.422c-15.439 0-28-12.561-28-28s12.561-28 28-28h80c15.439 0 28 12.561 28 28 0 7.826-3.229 14.914-8.422 20h44.422c15.439 0 28 12.561 28 28s-12.561 28-28 28zm-80-48c-11.027 0-20 8.973-20 20s8.973 20 20 20h80c11.027 0 20-8.973 20-20s-8.973-20-20-20h-64c-2.209 0-4-1.791-4-4s1.791-4 4-4c11.027 0 20-8.973 20-20s-8.973-20-20-20h-80c-11.027 0-20 8.973-20 20s8.973 20 20 20h64c2.209 0 4 1.791 4 4s-1.791 4-4 4z" fill="#4c241d"/></g><g fill="#4c241d"><path d="m236 76c-8.822 0-16-7.178-16-16s7.178-16 16-16 16 7.178 16 16-7.178 16-16 16zm0-24c-4.412 0-8 3.588-8 8s3.588 8 8 8 8-3.588 8-8-3.588-8-8-8z"/><path d="m122.344 264h-8.877c-2.664 0-5.326-.281-7.91-.838-2.158-.465-3.533-2.592-3.068-4.752.461-2.16 2.574-3.533 4.752-3.068 2.031.438 4.127.658 6.227.658h8.877c2.209 0 4 1.791 4 4s-1.792 4-4.001 4zm15.758-2.051c-1.627 0-3.158-1.002-3.754-2.619-.764-2.072.299-4.373 2.371-5.137 4.396-1.619 8.398-4.314 11.576-7.793 1.486-1.627 4.018-1.746 5.65-.256 1.631 1.49 1.746 4.02.256 5.65-4.035 4.42-9.125 7.846-14.717 9.906-.455.169-.923.249-1.382.249zm-45.957-5.617c-.898 0-1.803-.301-2.549-.918-4.607-3.814-8.277-8.729-10.613-14.209-.865-2.033.08-4.383 2.111-5.248 2.033-.867 4.383.078 5.248 2.111 1.838 4.312 4.727 8.178 8.355 11.182 1.701 1.41 1.939 3.932.531 5.633-.79.955-1.933 1.449-3.083 1.449zm66.722-17.123c-.342 0-.689-.045-1.037-.139-2.133-.57-3.4-2.764-2.828-4.898.662-2.475.998-5.045.998-7.639v-7.225c0-2.209 1.791-4 4-4s4 1.791 4 4v7.225c0 3.291-.428 6.559-1.271 9.709-.479 1.787-2.094 2.967-3.862 2.967zm-78.867-11.209c-2.209 0-4-1.791-4-4v-16c0-2.209 1.791-4 4-4s4 1.791 4 4v16c0 2.209-1.791 4-4 4zm172-8h-15.309c-2.209 0-4-1.791-4-4s1.791-4 4-4h15.309c2.209 0 4 1.791 4 4s-1.791 4-4 4zm-31.309 0h-16c-2.209 0-4-1.791-4-4s1.791-4 4-4h16c2.209 0 4 1.791 4 4s-1.791 4-4 4zm-32 0h-16c-2.209 0-4-1.791-4-4s1.791-4 4-4h16c2.209 0 4 1.791 4 4s-1.791 4-4 4z"/><circle cx="222" cy="98" r="4.529"/></g></g></svg>