<svg id="disk" enable-background="new 0 0 300 300" height="512" viewBox="0 0 300 300" width="512" xmlns="http://www.w3.org/2000/svg"><g><circle cx="170" cy="124" fill="#efefd2" r="92"/><path d="m62 80c-8.824 0-16-7.178-16-16s7.176-16 16-16 16 7.178 16 16-7.176 16-16 16zm0-24c-4.41 0-8 3.588-8 8s3.59 8 8 8 8-3.588 8-8-3.59-8-8-8z" fill="#4c241d"/><g><circle cx="142" cy="164" fill="#a9ba5a" r="80"/><path d="m148.844 247.711c-2.055 0-3.805-1.576-3.98-3.662-.188-2.201 1.445-4.137 3.645-4.324 5.062-.43 10.074-1.367 14.902-2.785 2.152-.621 4.344.594 4.965 2.711.625 2.119-.59 4.342-2.707 4.965-5.344 1.57-10.887 2.605-16.48 3.082-.119.009-.232.013-.345.013zm-15.961-.225c-.148 0-.301-.008-.453-.025-5.566-.631-11.078-1.824-16.391-3.549-2.102-.682-3.254-2.939-2.57-5.041.684-2.1 2.945-3.248 5.039-2.568 4.805 1.561 9.789 2.639 14.82 3.209 2.195.248 3.773 2.229 3.523 4.424-.23 2.043-1.96 3.55-3.968 3.55zm46.461-8.716c-1.434 0-2.824-.773-3.539-2.131-1.035-1.951-.289-4.373 1.664-5.404 4.465-2.361 8.715-5.186 12.645-8.396 1.707-1.406 4.227-1.146 5.629.562 1.398 1.711 1.145 4.23-.566 5.629-4.336 3.547-9.035 6.668-13.965 9.275-.599.316-1.239.465-1.868.465zm-76.688-1.096c-.668 0-1.344-.166-1.965-.518-4.855-2.746-9.465-5.998-13.699-9.67-1.668-1.445-1.848-3.973-.402-5.641 1.453-1.674 3.977-1.846 5.645-.404 3.832 3.322 8 6.268 12.395 8.75 1.922 1.088 2.602 3.527 1.512 5.451-.736 1.301-2.091 2.032-3.486 2.032zm101.278-19.035c-.891 0-1.785-.297-2.531-.904-1.707-1.4-1.961-3.92-.559-5.629 3.207-3.92 6.031-8.172 8.395-12.637 1.027-1.953 3.445-2.701 5.406-1.666 1.953 1.031 2.699 3.453 1.664 5.404-2.609 4.936-5.73 9.635-9.277 13.965-.79.967-1.938 1.467-3.098 1.467zm-125.286-1.785c-1.195 0-2.379-.533-3.168-1.553-3.422-4.424-6.406-9.211-8.879-14.229-.973-1.982-.16-4.381 1.824-5.355 1.977-.979 4.379-.16 5.355 1.82 2.234 4.539 4.934 8.869 8.027 12.869 1.352 1.748 1.031 4.26-.719 5.611-.725.563-1.588.837-2.44.837zm140.133-26.311c-.371 0-.75-.053-1.125-.164-2.117-.619-3.336-2.842-2.715-4.961 1.422-4.85 2.355-9.867 2.785-14.912.117-1.387.93-2.549 2.062-3.172-1.077-.715-1.788-1.941-1.788-3.334 0-5.082-.504-10.162-1.5-15.098-.438-2.166.965-4.275 3.133-4.713 2.164-.434 4.273.967 4.711 3.131 1.097 5.457 1.656 11.069 1.656 16.68 0 1.514-.84 2.83-2.078 3.51 1.176.781 1.902 2.164 1.773 3.672-.469 5.576-1.504 11.121-3.074 16.482-.512 1.746-2.109 2.879-3.84 2.879zm-154.179-2.199c-1.773 0-3.395-1.189-3.867-2.988-1.41-5.395-2.285-10.967-2.598-16.561-.125-2.205 1.562-4.094 3.77-4.219 2.172-.148 4.094 1.566 4.215 3.77.285 5.062 1.078 10.105 2.355 14.986.559 2.137-.723 4.322-2.859 4.881-.341.09-.68.131-1.016.131zm-1.797-31.731c-.188 0-.379-.014-.57-.041-2.188-.312-3.707-2.338-3.395-4.525.793-5.549 2.148-11.025 4.023-16.279.738-2.082 3.02-3.17 5.109-2.424 2.082.742 3.168 3.031 2.422 5.111-1.695 4.752-2.918 9.705-3.633 14.725-.284 1.994-1.995 3.433-3.956 3.433zm152.906-19.758c-1.559 0-3.039-.918-3.684-2.445-1.965-4.648-4.414-9.125-7.281-13.309-1.246-1.822-.781-4.311 1.039-5.561 1.832-1.246 4.312-.779 5.562 1.039 3.168 4.623 5.875 9.574 8.047 14.717.859 2.033-.09 4.381-2.125 5.24-.507.216-1.039.319-1.558.319zm-142.238-10.169c-.707 0-1.418-.186-2.066-.578-1.891-1.143-2.496-3.602-1.352-5.492 2.887-4.775 6.273-9.287 10.059-13.412 1.484-1.631 4.023-1.736 5.648-.242 1.629 1.494 1.738 4.023.242 5.652-3.426 3.734-6.488 7.82-9.105 12.143-.751 1.241-2.071 1.929-3.426 1.929zm124.281-16.057c-1.004 0-2.012-.377-2.789-1.133-3.625-3.523-7.621-6.701-11.879-9.443-1.855-1.197-2.391-3.672-1.195-5.529 1.199-1.859 3.672-2.391 5.531-1.197 4.699 3.029 9.117 6.541 13.121 10.436 1.582 1.539 1.617 4.072.078 5.656-.785.806-1.824 1.21-2.867 1.21zm-102.777-7.356c-1.238 0-2.457-.57-3.238-1.646-1.301-1.787-.906-4.289.883-5.588 4.535-3.299 9.406-6.146 14.477-8.467 2.016-.922 4.383-.031 5.301 1.975.918 2.01.035 4.383-1.973 5.303-4.59 2.096-8.996 4.674-13.102 7.658-.712.517-1.532.765-2.348.765zm76.05-9.843c-.484 0-.977-.09-1.453-.275-4.703-1.832-9.617-3.197-14.609-4.057-2.18-.373-3.641-2.441-3.266-4.619.375-2.172 2.414-3.66 4.621-3.264 5.52.949 10.957 2.459 16.16 4.486 2.059.803 3.074 3.121 2.273 5.18-.616 1.58-2.128 2.549-3.726 2.549zm-47.156-3.369c-1.82 0-3.465-1.248-3.895-3.098-.496-2.152.844-4.301 2.996-4.799 5.426-1.258 11.02-1.975 16.629-2.131 2.203-.074 4.051 1.676 4.113 3.887.059 2.207-1.68 4.049-3.887 4.109-5.082.143-10.145.791-15.051 1.928-.303.07-.604.104-.905.104z" fill="#4c241d"/></g><g><path d="m164.537 164h-122.537c0 55.229 44.771 100 100 100s100-44.771 100-100h-52.522" fill="#e66353"/><path d="m142 268c-57.348 0-104-46.654-104-104 0-2.209 1.789-4 4-4h122.535c2.211 0 4 1.791 4 4s-1.789 4-4 4h-118.453c2.105 51.086 44.324 92 95.918 92s93.812-40.914 95.918-92h-48.441c-2.211 0-4-1.791-4-4s1.789-4 4-4h52.523c2.211 0 4 1.791 4 4 0 57.346-46.652 104-104 104z" fill="#4c241d"/></g><g><circle cx="142" cy="164" fill="#ffce56" r="28"/><path d="m142 196c-17.645 0-32-14.355-32-32s14.355-32 32-32 32 14.355 32 32-14.355 32-32 32zm0-56c-13.234 0-24 10.766-24 24s10.766 24 24 24 24-10.766 24-24-10.766-24-24-24z" fill="#4c241d"/></g><g fill="#4c241d"><circle cx="204" cy="62" r="4.529"/><circle cx="236" cy="58" r="4.529"/><circle cx="240" cy="134" r="4.529"/></g></g></svg>