<svg id="door" enable-background="new 0 0 300 300" height="512" viewBox="0 0 300 300" width="512" xmlns="http://www.w3.org/2000/svg"><g><circle cx="124" cy="129.265" fill="#efefd2" r="92"/><g><path d="m72 73.265h192v192h-192z" fill="#a9ba5a"/><path d="m264 269.265h-16c-2.209 0-4-1.789-4-4s1.791-4 4-4h16c2.209 0 4 1.789 4 4s-1.791 4-4 4zm-32 0h-16c-2.209 0-4-1.789-4-4s1.791-4 4-4h16c2.209 0 4 1.789 4 4s-1.791 4-4 4zm-32 0h-16c-2.209 0-4-1.789-4-4s1.791-4 4-4h16c2.209 0 4 1.789 4 4s-1.791 4-4 4zm-32 0h-16c-2.209 0-4-1.789-4-4s1.791-4 4-4h16c2.209 0 4 1.789 4 4s-1.791 4-4 4zm-32 0h-16c-2.209 0-4-1.789-4-4s1.791-4 4-4h16c2.209 0 4 1.789 4 4s-1.791 4-4 4zm-32 0h-16c-2.209 0-4-1.789-4-4s1.791-4 4-4h16c2.209 0 4 1.789 4 4s-1.791 4-4 4zm-32 0c-2.209 0-4-1.789-4-4v-16c0-2.211 1.791-4 4-4s4 1.789 4 4v16c0 2.211-1.791 4-4 4zm192-16c-2.209 0-4-1.789-4-4v-16c0-2.211 1.791-4 4-4s4 1.789 4 4v16c0 2.211-1.791 4-4 4zm-192-16c-2.209 0-4-1.789-4-4v-16c0-2.211 1.791-4 4-4s4 1.789 4 4v16c0 2.211-1.791 4-4 4zm192-16c-2.209 0-4-1.789-4-4v-16c0-2.211 1.791-4 4-4s4 1.789 4 4v16c0 2.211-1.791 4-4 4zm-192-16c-2.209 0-4-1.789-4-4v-16c0-2.211 1.791-4 4-4s4 1.789 4 4v16c0 2.211-1.791 4-4 4zm192-16c-2.209 0-4-1.789-4-4v-16c0-2.211 1.791-4 4-4s4 1.789 4 4v16c0 2.211-1.791 4-4 4zm-192-16c-2.209 0-4-1.789-4-4v-16c0-2.211 1.791-4 4-4s4 1.789 4 4v16c0 2.211-1.791 4-4 4zm192-16c-2.209 0-4-1.789-4-4v-16c0-2.211 1.791-4 4-4s4 1.789 4 4v16c0 2.211-1.791 4-4 4zm-192-16c-2.209 0-4-1.789-4-4v-16c0-2.211 1.791-4 4-4s4 1.789 4 4v16c0 2.211-1.791 4-4 4zm192-16c-2.209 0-4-1.789-4-4v-16c0-2.211 1.791-4 4-4s4 1.789 4 4v16c0 2.211-1.791 4-4 4zm-192-16c-2.209 0-4-1.789-4-4v-16c0-2.211 1.791-4 4-4s4 1.789 4 4v16c0 2.211-1.791 4-4 4zm192-16c-2.209 0-4-1.789-4-4v-16c0-2.211 1.791-4 4-4s4 1.789 4 4v16c0 2.211-1.791 4-4 4zm-16-16h-16c-2.209 0-4-1.789-4-4s1.791-4 4-4h16c2.209 0 4 1.789 4 4s-1.791 4-4 4zm-32 0h-16c-2.209 0-4-1.789-4-4s1.791-4 4-4h16c2.209 0 4 1.789 4 4s-1.791 4-4 4zm-32 0h-16c-2.209 0-4-1.789-4-4s1.791-4 4-4h16c2.209 0 4 1.789 4 4s-1.791 4-4 4zm-32 0h-16c-2.209 0-4-1.789-4-4s1.791-4 4-4h16c2.209 0 4 1.789 4 4s-1.791 4-4 4zm-32 0h-16c-2.209 0-4-1.789-4-4s1.791-4 4-4h16c2.209 0 4 1.789 4 4s-1.791 4-4 4zm-32 0h-16c-2.209 0-4-1.789-4-4s1.791-4 4-4h16c2.209 0 4 1.789 4 4s-1.791 4-4 4z" fill="#4c241d"/></g><g><path d="m96 97.265h144v144h-144z" fill="#6b4f5b"/><path d="m240 245.265h-144c-2.209 0-4-1.789-4-4v-144c0-2.211 1.791-4 4-4h144c2.209 0 4 1.789 4 4v144c0 2.211-1.791 4-4 4zm-140-8h136v-136h-136z" fill="#4c241d"/></g><g><path d="m160 241.265h-64v-144l64 72z" fill="#ffce56"/><path d="m160 245.265h-64c-2.209 0-4-1.789-4-4v-144c0-1.66 1.025-3.148 2.578-3.738 1.549-.59 3.307-.16 4.412 1.082l64 72c.65.73 1.01 1.676 1.01 2.656v72c0 2.211-1.791 4-4 4zm-60-8h56v-66.48l-56-63z" fill="#4c241d"/></g><g><path d="m176 241.265h64v-144l-64 72z" fill="#ffce56"/><path d="m240 245.265h-64c-2.209 0-4-1.789-4-4v-72c0-.98.359-1.926 1.01-2.656l64-72c1.104-1.242 2.861-1.672 4.412-1.082 1.553.59 2.578 2.078 2.578 3.738v144c0 2.211-1.791 4-4 4zm-60-8h56v-129.48l-56 63z" fill="#4c241d"/></g><g fill="#4c241d"><path d="m52 65.265c-8.822 0-16-7.176-16-16s7.178-16 16-16 16 7.176 16 16-7.178 16-16 16zm0-24c-4.412 0-8 3.59-8 8s3.588 8 8 8 8-3.59 8-8-3.588-8-8-8z"/><circle cx="118" cy="35.265" r="4.529"/><circle cx="46" cy="91.265" r="4.529"/></g></g></svg>