<svg id="envelope" enable-background="new 0 0 300 300" height="512" viewBox="0 0 300 300" width="512" xmlns="http://www.w3.org/2000/svg"><g><circle cx="129.265" cy="128" fill="#efefd2" r="92"/><g><path d="m69.265 68h192v192h-192z" fill="#a9ba5a"/><path d="m261.265 264h-192c-2.209 0-4-1.791-4-4v-192c0-2.209 1.791-4 4-4h192c2.209 0 4 1.791 4 4v192c0 2.209-1.791 4-4 4zm-188-8h184v-184h-184z" fill="#4c241d"/></g><g fill="#4c241d"><path d="m89.265 264c-2.209 0-4-1.791-4-4 0-2.811.146-5.641.438-8.41.23-2.197 2.164-3.797 4.396-3.561 2.197.23 3.791 2.199 3.561 4.396-.262 2.492-.395 5.041-.395 7.574 0 2.21-1.791 4.001-4 4.001z"/><path d="m93.368 239.303c-.432 0-.869-.07-1.301-.219-2.088-.719-3.199-2.994-2.482-5.084 1.951-5.676 4.553-11.143 7.732-16.248 1.168-1.875 3.633-2.449 5.51-1.279 1.875 1.168 2.447 3.635 1.279 5.51-2.861 4.594-5.201 9.512-6.955 14.619-.57 1.658-2.123 2.701-3.783 2.701zm143.766-.078c-1.66 0-3.211-1.041-3.781-2.699-1.76-5.102-4.104-10.014-6.969-14.602-1.17-1.873-.6-4.342 1.273-5.512 1.881-1.17 4.342-.598 5.512 1.273 3.186 5.1 5.791 10.562 7.746 16.234.721 2.088-.389 4.365-2.479 5.084-.431.149-.87.222-1.302.222zm-125.813-28.762c-1.02 0-2.037-.387-2.818-1.16-1.566-1.557-1.576-4.09-.021-5.658 4.236-4.268 8.953-8.059 14.021-11.27 1.863-1.18 4.336-.629 5.52 1.238 1.182 1.867.627 4.338-1.238 5.52-4.562 2.891-8.811 6.305-12.623 10.148-.784.787-1.811 1.182-2.841 1.182zm107.836-.049c-1.027 0-2.055-.393-2.836-1.18-3.82-3.842-8.07-7.252-12.633-10.137-1.867-1.18-2.424-3.65-1.244-5.518 1.18-1.869 3.652-2.424 5.518-1.244 5.07 3.203 9.791 6.992 14.031 11.258 1.559 1.566 1.551 4.1-.016 5.656-.781.778-1.8 1.165-2.82 1.165zm-79.136-18.119c-1.65 0-3.193-1.029-3.773-2.674-.732-2.084.361-4.367 2.445-5.102 5.666-1.994 11.568-3.346 17.543-4.014 2.168-.252 4.176 1.33 4.42 3.529.246 2.195-1.334 4.174-3.529 4.42-5.375.602-10.682 1.816-15.777 3.611-.441.156-.888.23-1.329.23zm50.42-.024c-.439 0-.887-.074-1.326-.229-5.09-1.787-10.402-2.998-15.785-3.598-2.197-.244-3.777-2.221-3.533-4.416.242-2.197 2.225-3.779 4.416-3.533 5.986.664 11.893 2.012 17.555 4 2.084.732 3.18 3.016 2.447 5.1-.579 1.645-2.124 2.676-3.774 2.676z"/><path d="m241.265 264c-2.209 0-4-1.791-4-4 0-2.533-.133-5.082-.395-7.574-.23-2.197 1.363-4.166 3.561-4.396 2.221-.24 4.162 1.363 4.396 3.561.291 2.77.438 5.6.438 8.41 0 2.208-1.791 3.999-4 3.999z"/></g><g><path d="m233.015 136.014c17.45-17.383 28.25-41.437 28.25-68.014h-192c0 53.019 42.981 96 96 96 18.389 0 35.57-5.17 50.169-14.136" fill="#e66353"/><path d="m165.265 168c-55.141 0-100-44.859-100-100 0-2.209 1.791-4 4-4h192c2.209 0 4 1.791 4 4 0 26.785-10.451 51.945-29.428 70.848-1.562 1.562-4.098 1.555-5.656-.012-1.559-1.564-1.555-4.098.012-5.656 16.51-16.445 26.004-38.041 26.988-61.18h-183.83c2.102 48.881 42.525 88 91.914 88 17.023 0 33.648-4.684 48.076-13.545 1.879-1.158 4.344-.568 5.502 1.314 1.156 1.883.568 4.346-1.314 5.502-15.688 9.635-33.762 14.729-52.264 14.729z" fill="#4c241d"/></g><g fill="#4c241d"><path d="m165.265 128c-8.822 0-16-7.178-16-16s7.178-16 16-16 16 7.178 16 16-7.178 16-16 16zm0-24c-4.412 0-8 3.588-8 8s3.588 8 8 8 8-3.588 8-8-3.588-8-8-8z"/><circle cx="179.265" cy="42" r="4.529"/><circle cx="39.265" cy="102" r="4.529"/><circle cx="43.265" cy="46" r="4.529"/></g></g></svg>