<svg id="fingers" enable-background="new 0 0 300 300" height="512" viewBox="0 0 300 300" width="512" xmlns="http://www.w3.org/2000/svg"><g><circle cx="158" cy="150" fill="#efefd2" r="92"/><path d="m66 134c-8.822 0-16-7.178-16-16s7.178-16 16-16 16 7.178 16 16-7.178 16-16 16zm0-24c-4.412 0-8 3.588-8 8s3.588 8 8 8 8-3.588 8-8-3.588-8-8-8z" fill="#4c241d"/><g><path d="m210 30v54c0 27.614-22.386 50-50 50-27.614 0-50-22.386-50-50v-54" fill="#a9ba5a"/><g fill="#4c241d"><path d="m210 42c-2.209 0-4-1.791-4-4v-8c0-2.209 1.791-4 4-4s4 1.791 4 4v8c0 2.209-1.791 4-4 4z"/><path d="m160.035 138c-.014 0-.025 0-.037 0-2.965 0-5.947-.244-8.861-.725-2.18-.361-3.654-2.42-3.295-4.6s2.393-3.652 4.6-3.295c2.482.41 5.027.619 7.559.619h.033c2.553 0 5.115-.213 7.617-.633 2.201-.35 4.242 1.105 4.607 3.283.365 2.18-1.105 4.242-3.283 4.607-2.94.494-5.948.744-8.94.744zm-23.879-6.039c-.645 0-1.299-.156-1.906-.486-5.266-2.861-9.996-6.559-14.057-10.988-1.494-1.629-1.385-4.158.244-5.65 1.629-1.498 4.164-1.389 5.65.244 3.463 3.775 7.494 6.928 11.982 9.367 1.941 1.055 2.66 3.482 1.604 5.424-.724 1.333-2.097 2.089-3.517 2.089zm47.772-.047c-1.416 0-2.789-.752-3.516-2.084-1.059-1.938-.344-4.367 1.596-5.428 4.482-2.447 8.506-5.605 11.961-9.385 1.488-1.635 4.021-1.746 5.65-.256 1.631 1.49 1.746 4.02.256 5.65-4.053 4.436-8.775 8.141-14.035 11.014-.608.333-1.266.489-1.912.489zm-69.791-23.973c-1.543 0-3.014-.9-3.67-2.406-2.393-5.498-3.842-11.326-4.305-17.322-.17-2.203 1.479-4.127 3.68-4.297 2.199-.162 4.127 1.477 4.297 3.68.395 5.105 1.627 10.068 3.664 14.748.881 2.025-.047 4.381-2.072 5.264-.52.226-1.061.333-1.594.333zm91.767-.091c-.529 0-1.068-.107-1.586-.33-2.027-.879-2.961-3.232-2.084-5.26 2.027-4.684 3.25-9.65 3.635-14.76.164-2.201 2.014-3.885 4.289-3.688 2.201.166 3.854 2.086 3.688 4.289-.451 5.998-1.887 11.832-4.268 17.334-.654 1.51-2.127 2.415-3.674 2.415zm-95.904-32.541c-2.209 0-4-1.791-4-4v-16.602c0-2.209 1.791-4 4-4s4 1.791 4 4v16.602c0 2.209-1.791 4-4 4zm100-.104c-2.209 0-4-1.791-4-4v-16.603c0-2.209 1.791-4 4-4s4 1.791 4 4v16.604c0 2.208-1.791 3.999-4 3.999z"/><path d="m110 42c-2.209 0-4-1.791-4-4v-8c0-2.209 1.791-4 4-4s4 1.791 4 4v8c0 2.209-1.791 4-4 4z"/></g></g><g><path d="m210 270v-54c0-27.614-22.386-50-50-50-27.614 0-50 22.386-50 50v54" fill="#a9ba5a"/><g fill="#4c241d"><path d="m210 274c-2.209 0-4-1.791-4-4v-8c0-2.209 1.791-4 4-4s4 1.791 4 4v8c0 2.209-1.791 4-4 4z"/><path d="m210 249.398c-2.209 0-4-1.791-4-4v-16.604c0-2.209 1.791-4 4-4s4 1.791 4 4v16.604c0 2.209-1.791 4-4 4zm-100-.105c-2.209 0-4-1.791-4-4v-16.602c0-2.209 1.791-4 4-4s4 1.791 4 4v16.602c0 2.209-1.791 4-4 4zm99.854-33.094c-2.074 0-3.826-1.6-3.984-3.699-.385-5.109-1.607-10.076-3.635-14.76-.877-2.027.057-4.381 2.084-5.26 2.027-.881 4.381.057 5.26 2.084 2.381 5.502 3.816 11.336 4.268 17.334.166 2.203-1.486 4.123-3.688 4.289-.104.008-.206.012-.305.012zm-99.7-.103c-.104 0-.207-.004-.312-.012-2.201-.17-3.85-2.094-3.68-4.297.463-5.996 1.912-11.824 4.305-17.322.883-2.029 3.236-2.955 5.264-2.072 2.025.883 2.953 3.238 2.072 5.264-2.037 4.68-3.27 9.643-3.664 14.748-.162 2.097-1.914 3.691-3.985 3.691zm86.77-29.811c-1.086 0-2.166-.438-2.955-1.303-3.455-3.779-7.479-6.938-11.961-9.385-1.939-1.061-2.654-3.49-1.596-5.428 1.061-1.939 3.492-2.654 5.428-1.596 5.26 2.873 9.982 6.578 14.035 11.014 1.49 1.631 1.375 4.16-.256 5.65-.765.702-1.732 1.048-2.695 1.048zm-73.785-.068c-.965 0-1.934-.348-2.701-1.053-1.629-1.492-1.738-4.021-.244-5.65 4.061-4.43 8.791-8.127 14.057-10.988 1.947-1.057 4.369-.336 5.424 1.604 1.057 1.941.338 4.369-1.604 5.424-4.488 2.439-8.52 5.592-11.982 9.367-.788.86-1.868 1.296-2.95 1.296zm45.177-15.529c-.219 0-.441-.018-.666-.055-2.514-.422-5.115-.473-7.648-.633-2.533 0-5.078.209-7.561.619-2.209.34-4.24-1.117-4.6-3.295-.359-2.18 1.115-4.238 3.295-4.6 2.914-.48 5.896-.725 8.863-.725h.037c2.99 0 5.998.25 8.938.742 2.178.365 3.648 2.428 3.283 4.607-.327 1.955-2.021 3.34-3.941 3.34z"/><path d="m110 274c-2.209 0-4-1.791-4-4v-8c0-2.209 1.791-4 4-4s4 1.791 4 4v8c0 2.209-1.791 4-4 4z"/></g></g><g><path d="m160 186c-16.569 0-30 13.431-30 30v38h60v-38c0-16.569-13.431-30-30-30z" fill="#ffce56"/><path d="m190 258h-60c-2.209 0-4-1.791-4-4v-38c0-18.748 15.252-34 34-34s34 15.252 34 34v38c0 2.209-1.791 4-4 4zm-56-8h52v-34c0-14.336-11.664-26-26-26s-26 11.664-26 26z" fill="#4c241d"/></g><g><path d="m160 114c-16.569 0-30-13.431-30-30v-38h60v38c0 16.569-13.431 30-30 30z" fill="#e66353"/><path d="m160 118c-18.748 0-34-15.252-34-34v-38c0-2.209 1.791-4 4-4h60c2.209 0 4 1.791 4 4v38c0 18.748-15.252 34-34 34zm-26-68v34c0 14.336 11.664 26 26 26s26-11.664 26-26v-34z" fill="#4c241d"/></g><g fill="#4c241d"><path d="m246 154h-20c-2.209 0-4-1.791-4-4s1.791-4 4-4h20c2.209 0 4 1.791 4 4s-1.791 4-4 4z"/><path d="m222 142c-1.023 0-2.047-.391-2.828-1.172-1.562-1.562-1.562-4.094 0-5.656l12-12c1.562-1.562 4.094-1.562 5.656 0s1.562 4.094 0 5.656l-12 12c-.781.781-1.805 1.172-2.828 1.172z"/><path d="m234 178c-1.023 0-2.047-.391-2.828-1.172l-12-12c-1.562-1.562-1.562-4.094 0-5.656s4.094-1.562 5.656 0l12 12c1.562 1.562 1.562 4.094 0 5.656-.781.781-1.805 1.172-2.828 1.172z"/><circle cx="60" cy="204" r="4.529"/><circle cx="88" cy="184" r="4.529"/></g></g></svg>