<svg id="flower2" enable-background="new 0 0 300 300" height="512" viewBox="0 0 300 300" width="512" xmlns="http://www.w3.org/2000/svg"><g><circle cx="121" cy="123" fill="#efefd2" r="92"/><g fill="#4c241d"><circle cx="227" cy="41" r="4.529"/><circle cx="95" cy="41" r="4.529"/><circle cx="51" cy="105" r="4.529"/></g><g><path d="m245 129c-9.306 0-17.262 5.818-20.472 14h-52.215l36.922-36.921c8.055 3.516 17.794 2.004 24.375-4.576 8.578-8.578 8.576-22.536 0-31.113-8.577-8.576-22.535-8.578-31.113 0-6.581 6.581-8.092 16.321-4.576 24.375l-36.921 36.921v-52.215c8.182-3.209 14-11.165 14-20.472 0-12.131-9.871-22-22-22s-22 9.869-22 22c0 9.306 5.818 17.262 14 20.471v52.215l-36.921-36.921c3.516-8.055 2.004-17.795-4.576-24.375-8.578-8.578-22.536-8.576-31.113 0-8.576 8.577-8.578 22.535 0 31.113 6.581 6.581 16.32 8.092 24.375 4.576l36.922 36.922h-52.215c-3.209-8.182-11.166-14-20.472-14-12.131 0-22 9.871-22 22s9.869 22 22 22c9.306 0 17.262-5.818 20.472-14h52.214l-36.921 36.921c-8.055-3.516-17.794-2.004-24.375 4.576-8.578 8.578-8.576 22.536 0 31.113 8.577 8.576 22.535 8.578 31.113 0 6.581-6.58 8.092-16.32 4.576-24.375l36.921-36.922v52.215c-8.182 3.209-14 11.166-14 20.472 0 12.131 9.871 22 22 22s22-9.869 22-22c0-9.306-5.818-17.262-14-20.472v-52.215l36.921 36.921c-3.516 8.055-2.004 17.795 4.576 24.375 8.578 8.578 22.536 8.576 31.113 0 8.576-8.576 8.578-22.535 0-31.113-6.581-6.58-16.32-8.092-24.375-4.576l-36.921-36.92h52.214c3.209 8.182 11.166 14 20.472 14 12.131 0 22-9.871 22-22s-9.869-22-22-22zm-34.018-50.125c3.899-3.899 10.242-3.9 14.143 0s3.898 10.243 0 14.142c-3.899 3.899-10.242 3.9-14.143 0-3.899-3.9-3.898-10.243 0-14.142zm-115.964 14.142c-3.9 3.9-10.244 3.899-14.143 0-3.898-3.899-3.9-10.242 0-14.142s10.243-3.899 14.143 0c3.898 3.899 3.899 10.242 0 14.142zm-34.018 67.983c-5.514 0-10-4.484-10-10s4.486-10 10-10 10 4.484 10 10-4.486 10-10 10zm34.018 62.125c-3.899 3.899-10.242 3.9-14.143 0s-3.898-10.243 0-14.142c3.899-3.899 10.242-3.9 14.143 0 3.899 3.9 3.898 10.243 0 14.142zm47.982-164.125c0-5.513 4.484-10 10-10s10 4.486 10 10c0 5.513-4.484 10-10 10s-10-4.486-10-10zm20 184c0 5.513-4.484 10-10 10s-10-4.486-10-10c0-5.513 4.484-10 10-10s10 4.486 10 10zm47.982-34.017c3.9-3.9 10.244-3.899 14.143 0 3.898 3.899 3.9 10.242 0 14.142s-10.243 3.899-14.143 0c-3.898-3.899-3.899-10.242 0-14.142zm34.018-47.983c-5.514 0-10-4.484-10-10s4.486-10 10-10 10 4.484 10 10-4.486 10-10 10z" fill="#ffce56"/><path d="m153 269c-14.336 0-26-11.664-26-26 0-9.818 5.41-18.592 14-23.045v-39.986l-28.273 28.275c2.922 9.221.551 19.248-6.395 26.193-4.902 4.904-11.434 7.605-18.387 7.605s-13.48-2.701-18.383-7.605c-4.906-4.902-7.605-11.432-7.605-18.383 0-6.953 2.699-13.482 7.605-18.385 6.938-6.943 16.961-9.328 26.191-6.395l28.278-28.274h-39.988c-4.453 8.588-13.223 14-23.043 14-14.336 0-26-11.664-26-26s11.664-26 26-26c9.82 0 18.59 5.412 23.043 14h39.988l-28.277-28.275c-9.23 2.93-19.254.547-26.191-6.395-4.906-4.904-7.605-11.434-7.605-18.385s2.699-13.48 7.605-18.383c4.902-4.904 11.43-7.605 18.383-7.605s13.484 2.701 18.387 7.605c6.945 6.945 9.316 16.973 6.395 26.193l28.272 28.274v-39.986c-8.59-4.451-14-13.223-14-23.043 0-14.336 11.664-26 26-26s26 11.664 26 26c0 9.82-5.41 18.592-14 23.043v39.986l28.273-28.273c-2.922-9.221-.551-19.248 6.395-26.193 4.902-4.904 11.434-7.605 18.387-7.605s13.48 2.701 18.383 7.605c4.906 4.902 7.605 11.432 7.605 18.383s-2.699 13.48-7.605 18.385c-6.941 6.941-16.965 9.324-26.191 6.395l-28.278 28.274h39.988c4.453-8.588 13.223-14 23.043-14 14.336 0 26 11.664 26 26s-11.664 26-26 26c-9.82 0-18.59-5.412-23.043-14h-39.988l28.277 28.275c9.227-2.934 19.25-.549 26.191 6.395 4.906 4.902 7.605 11.432 7.605 18.385 0 6.951-2.699 13.48-7.605 18.383-4.902 4.904-11.43 7.605-18.383 7.605s-13.484-2.701-18.387-7.605c-6.945-6.945-9.316-16.973-6.395-26.193l-28.272-28.274v39.984c8.59 4.453 14 13.227 14 23.045 0 14.336-11.664 26-26 26zm-8-102.688c.516 0 1.035.1 1.531.305 1.496.619 2.469 2.078 2.469 3.695v52.215c0 1.645-1.008 3.123-2.539 3.723-6.961 2.734-11.461 9.309-11.461 16.75 0 9.926 8.074 18 18 18s18-8.074 18-18c0-7.441-4.5-14.016-11.461-16.75-1.531-.6-2.539-2.078-2.539-3.723v-52.213c0-1.617.973-3.076 2.469-3.695 1.496-.617 3.215-.277 4.359.867l36.922 36.92c1.164 1.162 1.496 2.92.836 4.428-2.988 6.855-1.523 14.684 3.738 19.947 3.395 3.393 7.914 5.262 12.73 5.262s9.336-1.869 12.727-5.262c3.395-3.393 5.262-7.912 5.262-12.727 0-4.816-1.867-9.336-5.262-12.729-5.188-5.186-13.211-6.686-19.945-3.738-1.512.658-3.266.326-4.43-.838l-36.922-36.922c-1.145-1.145-1.488-2.863-.867-4.359.617-1.494 2.078-2.469 3.695-2.469h52.215c1.645 0 3.121 1.008 3.723 2.539 2.734 6.964 9.309 11.462 16.75 11.462 9.926 0 18-8.074 18-18s-8.074-18-18-18c-7.441 0-14.016 4.498-16.75 11.461-.602 1.531-2.078 2.539-3.723 2.539h-52.215c-1.617 0-3.078-.975-3.695-2.469-.621-1.496-.277-3.215.867-4.359l36.922-36.922c1.16-1.162 2.918-1.496 4.43-.838 6.738 2.943 14.762 1.441 19.945-3.738 3.395-3.393 5.262-7.914 5.262-12.729s-1.867-9.334-5.262-12.727c-3.391-3.393-7.91-5.262-12.727-5.262s-9.336 1.869-12.73 5.262c-5.262 5.264-6.727 13.092-3.738 19.947.66 1.508.328 3.266-.836 4.428l-36.922 36.92c-1.148 1.146-2.867 1.486-4.359.867-1.496-.619-2.469-2.078-2.469-3.695v-52.214c0-1.645 1.008-3.123 2.539-3.725 6.961-2.73 11.461-9.305 11.461-16.746 0-9.926-8.074-18-18-18s-18 8.074-18 18c0 7.441 4.5 14.016 11.461 16.746 1.531.602 2.539 2.08 2.539 3.725v52.215c0 1.617-.973 3.076-2.469 3.695-1.496.623-3.215.279-4.359-.867l-36.922-36.92c-1.164-1.162-1.496-2.92-.836-4.428 2.988-6.855 1.523-14.684-3.738-19.947-3.395-3.393-7.914-5.262-12.73-5.262s-9.336 1.869-12.727 5.262c-3.395 3.393-5.262 7.912-5.262 12.727s1.867 9.336 5.262 12.729c5.184 5.186 13.203 6.682 19.945 3.738 1.508-.656 3.266-.324 4.43.838l36.922 36.922c1.145 1.145 1.488 2.863.867 4.359-.617 1.494-2.078 2.469-3.695 2.469h-52.215c-1.645 0-3.121-1.008-3.723-2.539-2.734-6.964-9.309-11.462-16.75-11.462-9.926 0-18 8.074-18 18s8.074 18 18 18c7.441 0 14.016-4.498 16.75-11.461.602-1.531 2.078-2.539 3.723-2.539h52.215c1.617 0 3.078.975 3.695 2.469.621 1.496.277 3.215-.867 4.359l-36.922 36.922c-1.164 1.16-2.926 1.494-4.43.838-6.746-2.949-14.766-1.445-19.945 3.738-3.395 3.393-5.262 7.912-5.262 12.729 0 4.814 1.867 9.334 5.262 12.727 3.391 3.393 7.91 5.262 12.727 5.262s9.336-1.869 12.73-5.262c5.262-5.264 6.727-13.092 3.738-19.947-.66-1.508-.328-3.264.836-4.428l36.922-36.922c.766-.766 1.789-1.173 2.828-1.173zm8 90.688c-7.719 0-14-6.281-14-14s6.281-14 14-14 14 6.281 14 14-6.281 14-14 14zm0-20c-3.309 0-6 2.691-6 6s2.691 6 6 6 6-2.691 6-6-2.691-6-6-6zm65.055-6.951c-3.742 0-7.258-1.455-9.898-4.096s-4.098-6.156-4.098-9.898 1.453-7.26 4.098-9.902c2.641-2.641 6.156-4.094 9.898-4.094 3.742 0 7.258 1.455 9.898 4.096 5.457 5.457 5.457 14.338 0 19.799-2.641 2.64-6.156 4.095-9.898 4.095zm0-19.99c-1.605 0-3.113.621-4.242 1.752v.002c-1.133 1.129-1.754 2.637-1.754 4.24 0 1.605.625 3.113 1.754 4.244s2.637 1.752 4.242 1.752c1.605 0 3.113-.621 4.242-1.752 2.34-2.34 2.34-6.146 0-8.486-1.129-1.131-2.637-1.752-4.242-1.752zm-7.071-1.077h.039zm-123.039 21.067c-3.742.002-7.258-1.453-9.898-4.096-5.457-5.461-5.457-14.342 0-19.799 5.285-5.279 14.52-5.283 19.797 0 2.645 2.641 4.098 6.158 4.098 9.9s-1.457 7.258-4.098 9.898-6.156 4.097-9.899 4.097zm0-19.99c-1.605 0-3.113.621-4.242 1.752-2.34 2.34-2.34 6.146 0 8.486 2.258 2.262 6.227 2.262 8.484 0 1.129-1.131 1.754-2.639 1.754-4.244 0-1.604-.621-3.111-1.754-4.24-1.128-1.133-2.636-1.754-4.242-1.754zm157.055-45.059c-7.719 0-14-6.281-14-14s6.281-14 14-14 14 6.281 14 14-6.281 14-14 14zm0-20c-3.309 0-6 2.691-6 6s2.691 6 6 6 6-2.691 6-6-2.691-6-6-6zm-184 20c-7.719 0-14-6.281-14-14s6.281-14 14-14 14 6.281 14 14-6.281 14-14 14zm0-20c-3.309 0-6 2.691-6 6s2.691 6 6 6 6-2.691 6-6-2.691-6-6-6zm157.055-45.059c-3.742.002-7.258-1.453-9.898-4.096-2.645-2.641-4.098-6.158-4.098-9.9s1.457-7.258 4.098-9.898c5.285-5.279 14.52-5.283 19.797 0 5.457 5.461 5.457 14.342 0 19.799-2.642 2.64-6.157 4.095-9.899 4.095zm0-19.99c-1.605 0-3.113.621-4.242 1.752s-1.754 2.639-1.754 4.244c0 1.604.621 3.111 1.754 4.24 2.258 2.266 6.227 2.264 8.484.002 2.34-2.34 2.34-6.146 0-8.486-1.129-1.131-2.637-1.752-4.242-1.752zm-130.11 19.99c-3.742 0-7.258-1.455-9.898-4.096-5.457-5.457-5.457-14.338 0-19.799 2.641-2.641 6.156-4.096 9.898-4.096 3.742 0 7.258 1.455 9.898 4.096s4.098 6.156 4.098 9.898-1.453 7.26-4.098 9.902c-2.64 2.642-6.155 4.095-9.898 4.095zm0-19.99c-1.605 0-3.113.621-4.242 1.752-2.34 2.34-2.34 6.146 0 8.486 1.129 1.131 2.637 1.752 4.242 1.752 1.605 0 3.113-.621 4.242-1.752 0 0 0 0 0-.002 1.133-1.129 1.754-2.637 1.754-4.24 0-1.605-.625-3.113-1.754-4.244s-2.636-1.752-4.242-1.752zm65.055-6.951c-7.719 0-14-6.281-14-14s6.281-14 14-14 14 6.281 14 14-6.281 14-14 14zm0-20c-3.309 0-6 2.691-6 6s2.691 6 6 6 6-2.691 6-6-2.691-6-6-6z" fill="#4c241d"/></g><g><circle cx="153" cy="151" fill="#e66353" r="32"/><path d="m153 187c-19.852 0-36-16.15-36-36s16.148-36 36-36 36 16.15 36 36-16.148 36-36 36zm0-64c-15.438 0-28 12.561-28 28s12.562 28 28 28 28-12.561 28-28-12.562-28-28-28z" fill="#4c241d"/></g></g></svg>