<svg id="half-earth" enable-background="new 0 0 300 300" height="512" viewBox="0 0 300 300" width="512" xmlns="http://www.w3.org/2000/svg"><g><circle cx="136" cy="148.735" fill="#efefd2" r="92"/><g><path d="m156 244.735c53.019 0 96-42.981 96-96s-42.981-96-96-96" fill="#a9ba5a"/><path d="m156 248.735c-2.209 0-4-1.791-4-4s1.791-4 4-4c50.729 0 92-41.271 92-92s-41.271-92-92-92c-2.209 0-4-1.791-4-4s1.791-4 4-4c55.141 0 100 44.859 100 100s-44.859 100-100 100z" fill="#4c241d"/></g><g><circle cx="230" cy="206.735" fill="#e66353" r="22"/><path d="m230 232.735c-14.336 0-26-11.664-26-26s11.664-26 26-26 26 11.664 26 26-11.664 26-26 26zm0-44c-9.926 0-18 8.074-18 18s8.074 18 18 18 18-8.074 18-18-8.074-18-18-18z" fill="#4c241d"/></g><g><path d="m156 52.735v192" fill="#a9ba5a"/><g fill="#4c241d"><path d="m156 64.735c-2.209 0-4-1.791-4-4v-8c0-2.209 1.791-4 4-4s4 1.791 4 4v8c0 2.209-1.791 4-4 4z"/><path d="m156 224.735c-2.209 0-4-1.791-4-4v-16c0-2.209 1.791-4 4-4s4 1.791 4 4v16c0 2.209-1.791 4-4 4zm0-32c-2.209 0-4-1.791-4-4v-16c0-2.209 1.791-4 4-4s4 1.791 4 4v16c0 2.209-1.791 4-4 4zm0-32c-2.209 0-4-1.791-4-4v-16c0-2.209 1.791-4 4-4s4 1.791 4 4v16c0 2.209-1.791 4-4 4zm0-32c-2.209 0-4-1.791-4-4v-16c0-2.209 1.791-4 4-4s4 1.791 4 4v16c0 2.209-1.791 4-4 4zm0-32c-2.209 0-4-1.791-4-4v-16c0-2.209 1.791-4 4-4s4 1.791 4 4v16c0 2.209-1.791 4-4 4z"/><path d="m156 248.735c-2.209 0-4-1.791-4-4v-8c0-2.209 1.791-4 4-4s4 1.791 4 4v8c0 2.209-1.791 4-4 4z"/></g></g><g><circle cx="158" cy="114.735" fill="#ffce56" r="26"/><path d="m158 144.735c-16.543 0-30-13.457-30-30s13.457-30 30-30 30 13.457 30 30-13.457 30-30 30zm0-52c-12.131 0-22 9.869-22 22s9.869 22 22 22 22-9.869 22-22-9.869-22-22-22z" fill="#4c241d"/></g><g fill="#4c241d"><path d="m96 84.735c-8.822 0-16-7.178-16-16s7.178-16 16-16 16 7.178 16 16-7.178 16-16 16zm0-24c-4.412 0-8 3.588-8 8s3.588 8 8 8 8-3.588 8-8-3.588-8-8-8z"/><circle cx="102" cy="222.735" r="4.529"/><circle cx="74" cy="246.735" r="4.529"/><circle cx="78" cy="202.735" r="4.529"/></g></g></svg>