<svg id="hexagon" enable-background="new 0 0 300 300" height="512" viewBox="0 0 300 300" width="512" xmlns="http://www.w3.org/2000/svg"><g><circle cx="158.736" cy="125.532" fill="#efefd2" r="92"/><g fill="#4c241d"><path d="m234.736 69.532c-8.822 0-16-7.178-16-16s7.178-16 16-16 16 7.178 16 16-7.178 16-16 16zm0-24c-4.412 0-8 3.588-8 8s3.588 8 8 8 8-3.588 8-8-3.588-8-8-8z"/><circle cx="176.736" cy="47.532" r="4.529"/><circle cx="256.736" cy="107.532" r="4.529"/></g><g><path d="m42.736 105.532v104l88 52.936 88-52.936v-104l-88-51.064z" fill="#ffce56"/><path d="m130.736 266.468c-.713 0-1.428-.191-2.062-.572l-88-52.936c-1.201-.723-1.938-2.023-1.938-3.428v-104c0-1.426.76-2.744 1.992-3.459l88-51.064c1.242-.723 2.773-.723 4.016 0l88 51.064c1.232.715 1.992 2.033 1.992 3.459v104c0 1.404-.736 2.705-1.938 3.428l-88 52.936c-.634.38-1.349.572-2.062.572zm-84-59.197 84 50.529 84-50.529v-99.436l-84-48.742-84 48.742z" fill="#4c241d"/></g><path d="m42.74 213.532c-1.369 0-2.701-.701-3.447-1.965-1.125-1.902-.494-4.355 1.408-5.479l176-104c1.902-1.127 4.355-.496 5.479 1.408 1.125 1.902.494 4.355-1.408 5.479l-176 104c-.64.378-1.341.557-2.032.557z" fill="#4c241d"/><g><path d="m102.736 142v32.936l28 16.467 28-16.467v-32.936l-28-16.468z" fill="#e66353"/><path d="m130.736 195.403c-.701 0-1.402-.184-2.027-.553l-28-16.467c-1.223-.719-1.973-2.029-1.973-3.447v-32.936c0-1.418.75-2.729 1.973-3.447l28-16.469c1.25-.738 2.805-.738 4.055 0l28 16.469c1.223.719 1.973 2.029 1.973 3.447v32.936c0 1.418-.75 2.729-1.973 3.447l-28 16.467c-.626.37-1.327.553-2.028.553zm-24-22.754 24 14.113 24-14.113v-28.361l-24-14.115-24 14.115z" fill="#4c241d"/></g><path d="m130.736 129.532c-2.209 0-4-1.791-4-4v-24c0-2.209 1.791-4 4-4s4 1.791 4 4v24c0 2.209-1.791 4-4 4z" fill="#4c241d"/><path d="m130.736 217.532c-2.209 0-4-1.791-4-4v-24c0-2.209 1.791-4 4-4s4 1.791 4 4v24c0 2.209-1.791 4-4 4z" fill="#4c241d"/></g></svg>