<svg id="intersect" enable-background="new 0 0 300 300" height="512" viewBox="0 0 300 300" width="512" xmlns="http://www.w3.org/2000/svg"><g><circle cx="128" cy="134" fill="#efefd2" r="92"/><g fill="#4c241d"><path d="m104 122c-8.824 0-16-7.176-16-16s7.176-16 16-16 16 7.176 16 16-7.176 16-16 16zm0-24c-4.41 0-8 3.59-8 8s3.59 8 8 8 8-3.59 8-8-3.59-8-8-8z"/><circle cx="122" cy="68" r="4.529"/><circle cx="50" cy="128" r="4.529"/></g><g><path d="m216.718 158h-52.718v-52.718c0-23.904 19.378-43.282 43.282-43.282h52.718v52.718c0 23.904-19.378 43.282-43.282 43.282z" fill="#e66353"/><path d="m216.719 162h-52.719c-2.211 0-4-1.789-4-4v-52.719c0-26.07 21.211-47.281 47.281-47.281h52.719c2.211 0 4 1.789 4 4v52.719c0 26.07-21.211 47.281-47.281 47.281zm-48.719-8h48.719c21.66 0 39.281-17.621 39.281-39.281v-48.719h-48.719c-21.66 0-39.281 17.621-39.281 39.281z" fill="#4c241d"/></g><g><path d="m120.718 254h-52.718v-52.718c0-23.904 19.378-43.282 43.282-43.282h52.718v52.718c0 23.904-19.378 43.282-43.282 43.282z" fill="#ffce56"/><path d="m120.719 258h-52.719c-2.211 0-4-1.789-4-4v-52.719c0-26.07 21.211-47.281 47.281-47.281h52.719c2.211 0 4 1.789 4 4v52.719c0 26.07-21.211 47.281-47.281 47.281zm-48.719-8h48.719c21.66 0 39.281-17.621 39.281-39.281v-48.719h-48.719c-21.66 0-39.281 17.621-39.281 39.281z" fill="#4c241d"/></g></g></svg>