<svg id="plus" enable-background="new 0 0 300 300" height="512" viewBox="0 0 300 300" width="512" xmlns="http://www.w3.org/2000/svg"><g><circle cx="128" cy="126" fill="#efefd2" r="92"/><g fill="#4c241d"><path d="m72 74c-8.824 0-16-7.176-16-16s7.176-16 16-16 16 7.176 16 16-7.176 16-16 16zm0-24c-4.41 0-8 3.59-8 8s3.59 8 8 8 8-3.59 8-8-3.59-8-8-8z"/><circle cx="110" cy="44" r="4.529"/><circle cx="46" cy="88" r="4.529"/></g><g><path d="m164 86h-20v-20h-16v20h-20v16h20v20h16v-20h20z" fill="#ffce56"/><path d="m144 126h-16c-2.211 0-4-1.789-4-4v-16h-16c-2.211 0-4-1.789-4-4v-16c0-2.211 1.789-4 4-4h16v-16c0-2.211 1.789-4 4-4h16c2.211 0 4 1.789 4 4v16h16c2.211 0 4 1.789 4 4v16c0 2.211-1.789 4-4 4h-16v16c0 2.211-1.789 4-4 4zm-12-8h8v-16c0-2.211 1.789-4 4-4h16v-8h-16c-2.211 0-4-1.789-4-4v-16h-8v16c0 2.211-1.789 4-4 4h-16v8h16c2.211 0 4 1.789 4 4z" fill="#4c241d"/></g><g><path d="m164 142h-20v-20h-16v20h-20v16h20v20h16v-20h20z" fill="#a9ba5a"/><path d="m144 182h-16c-2.211 0-4-1.789-4-4v-16h-16c-2.211 0-4-1.789-4-4v-16c0-2.211 1.789-4 4-4h16v-16c0-2.211 1.789-4 4-4h16c2.211 0 4 1.789 4 4v16h16c2.211 0 4 1.789 4 4v16c0 2.211-1.789 4-4 4h-16v16c0 2.211-1.789 4-4 4zm-12-8h8v-16c0-2.211 1.789-4 4-4h16v-8h-16c-2.211 0-4-1.789-4-4v-16h-8v16c0 2.211-1.789 4-4 4h-16v8h16c2.211 0 4 1.789 4 4z" fill="#4c241d"/></g><g><path d="m164 198h-20v-20h-16v20h-20v16h20v20h16v-20h20z" fill="#e66353"/><path d="m144 238h-16c-2.211 0-4-1.789-4-4v-16h-16c-2.211 0-4-1.789-4-4v-16c0-2.211 1.789-4 4-4h16v-16c0-2.211 1.789-4 4-4h16c2.211 0 4 1.789 4 4v16h16c2.211 0 4 1.789 4 4v16c0 2.211-1.789 4-4 4h-16v16c0 2.211-1.789 4-4 4zm-12-8h8v-16c0-2.211 1.789-4 4-4h16v-8h-16c-2.211 0-4-1.789-4-4v-16h-8v16c0 2.211-1.789 4-4 4h-16v8h16c2.211 0 4 1.789 4 4z" fill="#4c241d"/></g><g><path d="m116 114h-20v-20h-16v20h-20v16h20v20h16v-20h20z" fill="#e66353"/><path d="m96 154h-16c-2.211 0-4-1.789-4-4v-16h-16c-2.211 0-4-1.789-4-4v-16c0-2.211 1.789-4 4-4h16v-16c0-2.211 1.789-4 4-4h16c2.211 0 4 1.789 4 4v16h16c2.211 0 4 1.789 4 4v16c0 2.211-1.789 4-4 4h-16v16c0 2.211-1.789 4-4 4zm-12-8h8v-16c0-2.211 1.789-4 4-4h16v-8h-16c-2.211 0-4-1.789-4-4v-16h-8v16c0 2.211-1.789 4-4 4h-16v8h16c2.211 0 4 1.789 4 4z" fill="#4c241d"/></g><g><path d="m116 170h-20v-20h-16v20h-20v16h20v20h16v-20h20z" fill="#ffce56"/><path d="m96 210h-16c-2.211 0-4-1.789-4-4v-16h-16c-2.211 0-4-1.789-4-4v-16c0-2.211 1.789-4 4-4h16v-16c0-2.211 1.789-4 4-4h16c2.211 0 4 1.789 4 4v16h16c2.211 0 4 1.789 4 4v16c0 2.211-1.789 4-4 4h-16v16c0 2.211-1.789 4-4 4zm-12-8h8v-16c0-2.211 1.789-4 4-4h16v-8h-16c-2.211 0-4-1.789-4-4v-16h-8v16c0 2.211-1.789 4-4 4h-16v8h16c2.211 0 4 1.789 4 4z" fill="#4c241d"/></g><g><path d="m116 226h-20v-20h-16v20h-20v16h20v20h16v-20h20z" fill="#a9ba5a"/><path d="m96 266h-16c-2.211 0-4-1.789-4-4v-16h-16c-2.211 0-4-1.789-4-4v-16c0-2.211 1.789-4 4-4h16v-16c0-2.211 1.789-4 4-4h16c2.211 0 4 1.789 4 4v16h16c2.211 0 4 1.789 4 4v16c0 2.211-1.789 4-4 4h-16v16c0 2.211-1.789 4-4 4zm-12-8h8v-16c0-2.211 1.789-4 4-4h16v-8h-16c-2.211 0-4-1.789-4-4v-16h-8v16c0 2.211-1.789 4-4 4h-16v8h16c2.211 0 4 1.789 4 4z" fill="#4c241d"/></g><g><path d="m212 58h-20v-20h-16v20h-20v16h20v20h16v-20h20z" fill="#ffce56"/><path d="m192 98h-16c-2.211 0-4-1.789-4-4v-16h-16c-2.211 0-4-1.789-4-4v-16c0-2.211 1.789-4 4-4h16v-16c0-2.211 1.789-4 4-4h16c2.211 0 4 1.789 4 4v16h16c2.211 0 4 1.789 4 4v16c0 2.211-1.789 4-4 4h-16v16c0 2.211-1.789 4-4 4zm-12-8h8v-16c0-2.211 1.789-4 4-4h16v-8h-16c-2.211 0-4-1.789-4-4v-16h-8v16c0 2.211-1.789 4-4 4h-16v8h16c2.211 0 4 1.789 4 4z" fill="#4c241d"/></g><g><path d="m212 114h-20v-20h-16v20h-20v16h20v20h16v-20h20z" fill="#e66353"/><path d="m192 154h-16c-2.211 0-4-1.789-4-4v-16h-16c-2.211 0-4-1.789-4-4v-16c0-2.211 1.789-4 4-4h16v-16c0-2.211 1.789-4 4-4h16c2.211 0 4 1.789 4 4v16h16c2.211 0 4 1.789 4 4v16c0 2.211-1.789 4-4 4h-16v16c0 2.211-1.789 4-4 4zm-12-8h8v-16c0-2.211 1.789-4 4-4h16v-8h-16c-2.211 0-4-1.789-4-4v-16h-8v16c0 2.211-1.789 4-4 4h-16v8h16c2.211 0 4 1.789 4 4z" fill="#4c241d"/></g><g><path d="m260 86h-20v-20h-16v20h-20v16h20v20h16v-20h20z" fill="#a9ba5a"/><path d="m240 126h-16c-2.211 0-4-1.789-4-4v-16h-16c-2.211 0-4-1.789-4-4v-16c0-2.211 1.789-4 4-4h16v-16c0-2.211 1.789-4 4-4h16c2.211 0 4 1.789 4 4v16h16c2.211 0 4 1.789 4 4v16c0 2.211-1.789 4-4 4h-16v16c0 2.211-1.789 4-4 4zm-12-8h8v-16c0-2.211 1.789-4 4-4h16v-8h-16c-2.211 0-4-1.789-4-4v-16h-8v16c0 2.211-1.789 4-4 4h-16v8h16c2.211 0 4 1.789 4 4z" fill="#4c241d"/></g><g><path d="m260 142h-20v-20h-16v20h-20v16h20v20h16v-20h20z" fill="#e66353"/><path d="m240 182h-16c-2.211 0-4-1.789-4-4v-16h-16c-2.211 0-4-1.789-4-4v-16c0-2.211 1.789-4 4-4h16v-16c0-2.211 1.789-4 4-4h16c2.211 0 4 1.789 4 4v16h16c2.211 0 4 1.789 4 4v16c0 2.211-1.789 4-4 4h-16v16c0 2.211-1.789 4-4 4zm-12-8h8v-16c0-2.211 1.789-4 4-4h16v-8h-16c-2.211 0-4-1.789-4-4v-16h-8v16c0 2.211-1.789 4-4 4h-16v8h16c2.211 0 4 1.789 4 4z" fill="#4c241d"/></g><g><path d="m260 198h-20v-20h-16v20h-20v16h20v20h16v-20h20z" fill="#ffce56"/><path d="m240 238h-16c-2.211 0-4-1.789-4-4v-16h-16c-2.211 0-4-1.789-4-4v-16c0-2.211 1.789-4 4-4h16v-16c0-2.211 1.789-4 4-4h16c2.211 0 4 1.789 4 4v16h16c2.211 0 4 1.789 4 4v16c0 2.211-1.789 4-4 4h-16v16c0 2.211-1.789 4-4 4zm-12-8h8v-16c0-2.211 1.789-4 4-4h16v-8h-16c-2.211 0-4-1.789-4-4v-16h-8v16c0 2.211-1.789 4-4 4h-16v8h16c2.211 0 4 1.789 4 4z" fill="#4c241d"/></g><g><path d="m212 170h-20v-20h-16v20h-20v16h20v20h16v-20h20z" fill="#ffce56"/><path d="m192 210h-16c-2.211 0-4-1.789-4-4v-16h-16c-2.211 0-4-1.789-4-4v-16c0-2.211 1.789-4 4-4h16v-16c0-2.211 1.789-4 4-4h16c2.211 0 4 1.789 4 4v16h16c2.211 0 4 1.789 4 4v16c0 2.211-1.789 4-4 4h-16v16c0 2.211-1.789 4-4 4zm-12-8h8v-16c0-2.211 1.789-4 4-4h16v-8h-16c-2.211 0-4-1.789-4-4v-16h-8v16c0 2.211-1.789 4-4 4h-16v8h16c2.211 0 4 1.789 4 4z" fill="#4c241d"/></g></g></svg>