<svg id="resize" enable-background="new 0 0 300 300" height="512" viewBox="0 0 300 300" width="512" xmlns="http://www.w3.org/2000/svg"><g><circle cx="130" cy="130" fill="#efefd2" r="92"/><path d="m238 86c-8.822 0-16-7.178-16-16s7.178-16 16-16 16 7.178 16 16-7.178 16-16 16zm0-24c-4.412 0-8 3.588-8 8s3.588 8 8 8 8-3.588 8-8-3.588-8-8-8z" fill="#4c241d"/><path d="m70 254c-8.822 0-16-7.178-16-16s7.178-16 16-16 16 7.178 16 16-7.178 16-16 16zm0-24c-4.412 0-8 3.588-8 8s3.588 8 8 8 8-3.588 8-8-3.588-8-8-8z" fill="#4c241d"/><path d="m102 102h104v104h-104z" fill="#a9ba5a"/><g><path d="m181.228 186h-54.457c-2.635 0-4.772-2.136-4.772-4.772v-54.457c0-2.635 2.136-4.772 4.772-4.772h54.457c2.635 0 4.772 2.136 4.772 4.772v54.457c0 2.636-2.136 4.772-4.772 4.772z" fill="#ffce56"/><path d="m181.283 190h-15.539c-2.209 0-4-1.791-4-4s1.791-4 4-4h15.484c2.209 0 4.027 1.791 4.027 4s-1.763 4-3.972 4zm-31.025 0h-15.484c-2.209 0-4-1.791-4-4s1.791-4 4-4h15.484c2.209 0 4 1.791 4 4s-1.791 4-4 4zm-28.258-4.764c-2.209 0-4-1.783-4-3.992v-15.486c0-2.209 1.791-4 4-4s4 1.791 4 4v15.471c0 2.209-1.791 4.007-4 4.007zm64-8.05c-2.209 0-4-1.791-4-4v-15.484c0-2.209 1.791-4 4-4s4 1.791 4 4v15.484c0 2.209-1.791 4-4 4zm-64-22.915c-2.209 0-4-1.791-4-4v-15.484c0-2.209 1.791-4 4-4s4 1.791 4 4v15.484c0 2.209-1.791 4-4 4zm64-8.056c-2.209 0-4-1.791-4-4v-15.443c0-2.209 1.791-4.021 4-4.021s4 1.77 4 3.979v15.486c0 2.208-1.791 3.999-4 3.999zm-12.801-20.215h-15.484c-2.209 0-4-1.791-4-4s1.791-4 4-4h15.484c2.209 0 4 1.791 4 4s-1.791 4-4 4zm-30.97 0h-15.457c-2.209 0-4.014-1.791-4.014-4s1.777-4 3.986-4h15.484c2.209 0 4 1.791 4 4s-1.79 4-3.999 4z" fill="#4c241d"/></g><g fill="#4c241d"><path d="m102 262c-2.209 0-4-1.791-4-4v-208c0-2.209 1.791-4 4-4s4 1.791 4 4v208c0 2.209-1.791 4-4 4z"/><path d="m206 262c-2.209 0-4-1.791-4-4v-208c0-2.209 1.791-4 4-4s4 1.791 4 4v208c0 2.209-1.791 4-4 4z"/><path d="m258 210h-208c-2.209 0-4-1.791-4-4s1.791-4 4-4h208c2.209 0 4 1.791 4 4s-1.791 4-4 4z"/><path d="m258 106h-208c-2.209 0-4-1.791-4-4s1.791-4 4-4h208c2.209 0 4 1.791 4 4s-1.791 4-4 4z"/><path d="m154 106c-2.209 0-4-1.791-4-4v-52c0-2.209 1.791-4 4-4s4 1.791 4 4v52c0 2.209-1.791 4-4 4z"/><path d="m154 262c-2.209 0-4-1.791-4-4v-52c0-2.209 1.791-4 4-4s4 1.791 4 4v52c0 2.209-1.791 4-4 4z"/><path d="m102 158h-52c-2.209 0-4-1.791-4-4s1.791-4 4-4h52c2.209 0 4 1.791 4 4s-1.791 4-4 4z"/><path d="m258 158h-52c-2.209 0-4-1.791-4-4s1.791-4 4-4h52c2.209 0 4 1.791 4 4s-1.791 4-4 4z"/></g></g></svg>