<svg id="sarround" enable-background="new 0 0 300 300" height="512" viewBox="0 0 300 300" width="512" xmlns="http://www.w3.org/2000/svg"><g><circle cx="158.735" cy="130" fill="#efefd2" r="92"/><g fill="#4c241d"><circle cx="200.735" cy="132" r="4.529"/><circle cx="232.735" cy="172" r="4.529"/><circle cx="252.735" cy="224" r="4.529"/><circle cx="228.735" cy="140" r="4.529"/></g><g><path d="m110.735 130h64v64h-64z" fill="#e66353"/><path d="m174.735 198h-64c-2.211 0-4-1.791-4-4v-64c0-2.209 1.789-4 4-4h64c2.211 0 4 1.791 4 4v64c0 2.209-1.789 4-4 4zm-60-8h56v-56h-56z" fill="#4c241d"/></g><g><path d="m77.735 258h-31v-192h184l-12 32h-140v128h140l12 32h-126.5" fill="#ffce56"/><path d="m230.735 262h-126.5c-2.211 0-4-1.791-4-4s1.789-4 4-4h120.727l-9-24h-137.227c-2.211 0-4-1.791-4-4v-128c0-2.209 1.789-4 4-4h137.227l9-24h-174.227v184h27c2.211 0 4 1.791 4 4s-1.789 4-4 4h-31c-2.211 0-4-1.791-4-4v-192c0-2.209 1.789-4 4-4h184c1.312 0 2.539.643 3.289 1.721.746 1.08.918 2.455.457 3.684l-12 32c-.586 1.561-2.078 2.596-3.746 2.596h-136v120h136c1.668 0 3.16 1.035 3.746 2.596l12 32c.461 1.229.289 2.604-.457 3.684-.75 1.076-1.976 1.719-3.289 1.719z" fill="#4c241d"/></g><path d="m78.735 110c-2.211 0-4-1.791-4-4v-20c0-2.209 1.789-4 4-4s4 1.791 4 4v20c0 2.209-1.789 4-4 4z" fill="#4c241d"/></g></svg>