<svg id="separated" enable-background="new 0 0 300 300" height="512" viewBox="0 0 300 300" width="512" xmlns="http://www.w3.org/2000/svg"><g><circle cx="156" cy="152" fill="#efefd2" r="92"/><g><circle cx="96" cy="100" fill="#a9ba5a" r="40"/><path d="m99.418 143.855c-2.055 0-3.805-1.574-3.98-3.662-.188-2.201 1.445-4.137 3.645-4.324 4.828-.41 9.445-1.764 13.715-4.023 1.957-1.033 4.375-.283 5.406 1.668 1.035 1.953.289 4.373-1.664 5.406-5.23 2.764-10.875 4.42-16.777 4.922-.118.01-.232.013-.345.013zm-15.777-1.798c-.41 0-.824-.064-1.234-.197-5.621-1.826-10.738-4.721-15.219-8.605-1.668-1.447-1.848-3.973-.402-5.643 1.453-1.67 3.977-1.846 5.645-.4 3.664 3.178 7.852 5.547 12.445 7.039 2.102.684 3.254 2.939 2.57 5.041-.551 1.688-2.118 2.765-3.805 2.765zm43.328-12.741c-.891 0-1.785-.295-2.527-.904-1.711-1.398-1.965-3.918-.566-5.629 3.074-3.754 5.32-8.008 6.68-12.645.629-2.119 2.828-3.338 4.969-2.711 2.117.623 3.332 2.846 2.711 4.965-1.668 5.668-4.414 10.869-8.164 15.457-.795.967-1.943 1.467-3.103 1.467zm-66.864-7.664c-1.477 0-2.895-.818-3.59-2.23-2.617-5.299-4.109-10.99-4.441-16.912-.125-2.205 1.562-4.094 3.77-4.219 2.168-.143 4.094 1.566 4.215 3.77.273 4.842 1.496 9.492 3.629 13.822.98 1.98.164 4.379-1.816 5.357-.571.28-1.173.412-1.767.412zm75.895-17.652c-2.211 0-4-1.791-4-4 0-4.859-.953-9.574-2.828-14.016-.859-2.033.09-4.381 2.125-5.24 2.031-.861 4.383.09 5.242 2.127 2.297 5.432 3.461 11.195 3.461 17.129 0 2.209-1.789 4-4 4zm-77.684-13.441c-.445 0-.898-.076-1.344-.234-2.082-.744-3.168-3.031-2.422-5.113 1.984-5.561 5.023-10.596 9.035-14.961 1.5-1.629 4.031-1.734 5.652-.24 1.625 1.494 1.734 4.023.238 5.65-3.281 3.574-5.77 7.693-7.395 12.242-.58 1.634-2.119 2.656-3.764 2.656zm65.559-15.245c-1.004 0-2.012-.377-2.789-1.133-3.477-3.381-7.523-5.984-12.027-7.74-2.059-.801-3.074-3.121-2.273-5.18.805-2.061 3.121-3.074 5.18-2.273 5.504 2.145 10.449 5.326 14.699 9.459 1.582 1.539 1.617 4.072.078 5.656-.786.807-1.825 1.211-2.868 1.211zm-44.492-7.705c-1.52 0-2.969-.867-3.641-2.336-.918-2.01-.039-4.383 1.973-5.303 5.363-2.457 11.094-3.787 17.027-3.953 2.129-.084 4.051 1.678 4.113 3.887.059 2.207-1.68 4.049-3.887 4.109-4.855.137-9.539 1.223-13.926 3.23-.538.249-1.104.366-1.659.366z" fill="#4c241d"/></g><g><path d="m56 160h80v80h-80z" fill="#e66353"/><path d="m136 244h-80c-2.211 0-4-1.791-4-4v-80c0-2.209 1.789-4 4-4h80c2.211 0 4 1.791 4 4v80c0 2.209-1.789 4-4 4zm-76-8h72v-72h-72z" fill="#4c241d"/></g><g><circle cx="204" cy="200" fill="#ffce56" r="40"/><path d="m204 244c-24.262 0-44-19.738-44-44s19.738-44 44-44 44 19.738 44 44-19.738 44-44 44zm0-80c-19.852 0-36 16.15-36 36s16.148 36 36 36 36-16.15 36-36-16.148-36-36-36z" fill="#4c241d"/></g><g><path d="m164 60h80v80h-80z" fill="#b5a19c"/><path d="m244 144h-80c-2.211 0-4-1.791-4-4v-80c0-2.209 1.789-4 4-4h80c2.211 0 4 1.791 4 4v80c0 2.209-1.789 4-4 4zm-76-8h72v-72h-72z" fill="#4c241d"/></g><path d="m204 216c-8.824 0-16-7.178-16-16s7.176-16 16-16 16 7.178 16 16-7.176 16-16 16zm0-24c-4.41 0-8 3.588-8 8s3.59 8 8 8 8-3.588 8-8-3.59-8-8-8z" fill="#4c241d"/></g></svg>