<svg id="shapes" enable-background="new 0 0 300 300" height="512" viewBox="0 0 300 300" width="512" xmlns="http://www.w3.org/2000/svg"><g><circle cx="164" cy="128" fill="#efefd2" r="92"/><path d="m240 116c-8.824 0-16-7.178-16-16s7.176-16 16-16 16 7.178 16 16-7.176 16-16 16zm0-24c-4.41 0-8 3.588-8 8s3.59 8 8 8 8-3.588 8-8-3.59-8-8-8z" fill="#4c241d"/><g><path d="m177.618 224h62.382l-98-168-98 168h98" fill="#a9ba5a"/><path d="m240 228h-62.383c-2.211 0-4-1.791-4-4s1.789-4 4-4h55.418l-91.035-156.061-91.035 156.061h91.035c2.211 0 4 1.791 4 4s-1.789 4-4 4h-98c-1.434 0-2.754-.766-3.469-2.008s-.707-2.77.012-4.008l98-168c1.438-2.457 5.477-2.457 6.914 0l98 168c.719 1.238.727 2.766.012 4.008s-2.035 2.008-3.469 2.008z" fill="#4c241d"/></g><g><circle cx="88" cy="140" fill="#ffce56" r="40"/><path d="m88 184c-24.262 0-44-19.738-44-44s19.738-44 44-44 44 19.738 44 44-19.738 44-44 44zm0-80c-19.852 0-36 16.15-36 36s16.148 36 36 36 36-16.15 36-36-16.148-36-36-36z" fill="#4c241d"/></g><path d="m89.711 163.928c-2.059 0-3.805-1.576-3.98-3.662-.188-2.201 1.445-4.137 3.645-4.324 4.336-.367 8.246-2.434 11.02-5.816 1.395-1.703 3.918-1.963 5.629-.559 1.707 1.4 1.961 3.92.559 5.629-4.094 4.996-10.117 8.174-16.527 8.719-.119.009-.233.013-.346.013zm-14.808-4.813c-.93 0-1.863-.322-2.621-.977-4.949-4.293-7.879-10.248-8.242-16.771-.125-2.207 1.562-4.094 3.77-4.219 2.164-.125 4.094 1.564 4.215 3.77.246 4.344 2.199 8.312 5.5 11.176 1.668 1.445 1.848 3.973.402 5.641-.794.913-1.907 1.38-3.024 1.38zm33.097-15.115c-2.211 0-4-1.791-4-4 0-4.359-1.723-8.434-4.852-11.477-1.582-1.539-1.617-4.072-.078-5.656 1.539-1.582 4.07-1.619 5.656-.078 4.692 4.561 7.274 10.672 7.274 17.211 0 2.209-1.789 4-4 4zm-34.738-13.525c-.969 0-1.938-.348-2.707-1.055-1.625-1.494-1.734-4.023-.238-5.65 4.426-4.822 10.465-7.578 16.996-7.76 2.273-.096 4.051 1.678 4.113 3.887.059 2.209-1.68 4.049-3.887 4.109-4.355.121-8.379 1.959-11.332 5.174-.789.859-1.867 1.295-2.945 1.295z" fill="#4c241d"/><g><path d="m164 168h92v92h-92z" fill="#e66353"/><path d="m256 264h-92c-2.211 0-4-1.791-4-4v-92c0-2.209 1.789-4 4-4h92c2.211 0 4 1.791 4 4v92c0 2.209-1.789 4-4 4zm-88-8h84v-84h-84z" fill="#4c241d"/></g><circle cx="214" cy="70" fill="#4c241d" r="4.529"/></g></svg>