<svg id="shift" enable-background="new 0 0 300 300" height="512" viewBox="0 0 300 300" width="512" xmlns="http://www.w3.org/2000/svg"><g><circle cx="171.265" cy="136" fill="#efefd2" r="92"/><g fill="#4c241d"><circle cx="69.265" cy="58" r="4.529"/><circle cx="41.265" cy="122" r="4.529"/><circle cx="41.265" cy="54" r="4.529"/></g><g><path d="m251.265 108v-28h-192v28h80v44h-80v28h80v44h-80v28h192v-28h-80v-44h80v-28h-80v-44z" fill="#a9ba5a"/><path d="m251.265 256h-192c-2.209 0-4-1.789-4-4v-28c0-2.211 1.791-4 4-4h76v-36h-76c-2.209 0-4-1.789-4-4v-28c0-2.211 1.791-4 4-4h76v-36h-76c-2.209 0-4-1.789-4-4v-28c0-2.211 1.791-4 4-4h192c2.209 0 4 1.789 4 4v28c0 2.211-1.791 4-4 4h-76v36h76c2.209 0 4 1.789 4 4v28c0 2.211-1.791 4-4 4h-76v36h76c2.209 0 4 1.789 4 4v28c0 2.211-1.791 4-4 4zm-188-8h184v-20h-76c-2.209 0-4-1.789-4-4v-44c0-2.211 1.791-4 4-4h76v-20h-76c-2.209 0-4-1.789-4-4v-44c0-2.211 1.791-4 4-4h76v-20h-184v20h76c2.209 0 4 1.789 4 4v44c0 2.211-1.791 4-4 4h-76v20h76c2.209 0 4 1.789 4 4v44c0 2.211-1.791 4-4 4h-76z" fill="#4c241d"/></g><path d="m147.265 184h-8c-2.209 0-4-1.789-4-4s1.791-4 4-4h8c2.209 0 4 1.789 4 4s-1.791 4-4 4z" fill="#4c241d"/><path d="m175.265 112h-12c-2.209 0-4-1.789-4-4s1.791-4 4-4h12c2.209 0 4 1.789 4 4s-1.791 4-4 4z" fill="#4c241d"/><path d="m171.265 228h-8c-2.209 0-4-1.789-4-4s1.791-4 4-4h8c2.209 0 4 1.789 4 4s-1.791 4-4 4z" fill="#4c241d"/></g></svg>