<svg id="sign" enable-background="new 0 0 300 300" height="512" viewBox="0 0 300 300" width="512" xmlns="http://www.w3.org/2000/svg"><g><circle cx="142" cy="122" fill="#efefd2" r="92"/><g fill="#4c241d"><path d="m234 82c-8.822 0-16-7.178-16-16s7.178-16 16-16 16 7.178 16 16-7.178 16-16 16zm0-24c-4.412 0-8 3.588-8 8s3.588 8 8 8 8-3.588 8-8-3.588-8-8-8z"/><circle cx="96" cy="56" r="4.529"/><circle cx="64" cy="68" r="4.529"/></g><g><ellipse cx="150" cy="258" fill="#6b4f5b" rx="44" ry="8"/><path d="m150 270c-14.432 0-48-1.17-48-12 0-3.607 4.678-12 48-12 14.432 0 48 1.17 48 12 0 3.607-4.678 12-48 12zm-37.58-12c5.49 1.838 18.184 4 37.58 4s32.09-2.162 37.58-4c-5.49-1.838-18.184-4-37.58-4s-32.09 2.162-37.58 4zm78.041 1.389h.039z" fill="#4c241d"/></g><g><path d="m249.854 172.94-80.913 80.913c-10.46 10.46-27.42 10.46-37.881 0l-80.914-80.913c-10.46-10.46-10.46-27.42 0-37.881l80.913-80.913c10.46-10.46 27.42-10.46 37.881 0l80.913 80.913c10.461 10.461 10.461 27.421.001 37.881z" fill="#ffce56"/><path d="m150 265.699c-8.223 0-15.955-3.203-21.768-9.018l-80.914-80.914c-5.814-5.812-9.018-13.545-9.018-21.768s3.203-15.955 9.018-21.768l80.914-80.914c5.812-5.814 13.545-9.018 21.768-9.018s15.955 3.203 21.768 9.018l80.914 80.914c5.814 5.812 9.018 13.545 9.018 21.768s-3.203 15.955-9.018 21.768l-80.914 80.914c-5.813 5.815-13.545 9.018-21.768 9.018zm0-215.398c-6.086 0-11.809 2.371-16.111 6.674l-80.914 80.914c-4.303 4.303-6.674 10.025-6.674 16.111s2.371 11.809 6.674 16.111l80.914 80.914c4.303 4.303 10.025 6.674 16.111 6.674s11.809-2.371 16.111-6.674l80.914-80.914c4.303-4.303 6.674-10.025 6.674-16.111s-2.371-11.809-6.674-16.111l-80.914-80.914c-4.302-4.303-10.025-6.674-16.111-6.674z" fill="#4c241d"/></g><g><circle cx="122" cy="138" fill="#e66353" r="28"/><path d="m122 170c-17.645 0-32-14.355-32-32s14.355-32 32-32 32 14.355 32 32-14.355 32-32 32zm0-56c-13.234 0-24 10.766-24 24s10.766 24 24 24 24-10.766 24-24-10.766-24-24-24z" fill="#4c241d"/></g><g><circle cx="178" cy="138" fill="#a9ba5a" r="28"/><path d="m178 170c-17.645 0-32-14.355-32-32s14.355-32 32-32 32 14.355 32 32-14.355 32-32 32zm0-56c-13.234 0-24 10.766-24 24s10.766 24 24 24 24-10.766 24-24-10.766-24-24-24z" fill="#4c241d"/></g><g><circle cx="150" cy="190" fill="#b5a19c" r="28"/><path d="m150 222c-17.645 0-32-14.355-32-32s14.355-32 32-32 32 14.355 32 32-14.355 32-32 32zm0-56c-13.234 0-24 10.766-24 24s10.766 24 24 24 24-10.766 24-24-10.766-24-24-24z" fill="#4c241d"/></g></g></svg>