<svg id="square" enable-background="new 0 0 300 300" height="512" viewBox="0 0 300 300" width="512" xmlns="http://www.w3.org/2000/svg"><g><circle cx="176" cy="128" fill="#efefd2" r="92"/><g><path d="m213.545 260h-163.09c-7.983 0-14.455-6.472-14.455-14.455v-163.09c0-7.983 6.472-14.455 14.455-14.455h163.09c7.983 0 14.455 6.472 14.455 14.455v163.09c0 7.983-6.472 14.455-14.455 14.455z" fill="#a9ba5a"/><path d="m213.547 264h-163.092c-10.176 0-18.455-8.279-18.455-18.455v-163.09c0-10.176 8.279-18.455 18.455-18.455h163.092c10.176 0 18.453 8.279 18.453 18.455v163.09c0 10.176-8.277 18.455-18.453 18.455zm-163.092-192c-5.766 0-10.455 4.689-10.455 10.455v163.09c0 5.766 4.689 10.455 10.455 10.455h163.092c5.766 0 10.453-4.689 10.453-10.455v-163.09c0-5.766-4.688-10.455-10.453-10.455z" fill="#4c241d"/></g><g><path d="m152 88h56v152h-152v-152h76" fill="#ffce56"/><path d="m208 244h-152c-2.209 0-4-1.791-4-4v-152c0-2.209 1.791-4 4-4h76c2.211 0 4 1.791 4 4s-1.789 4-4 4h-72v144h144v-144h-52c-2.211 0-4-1.791-4-4s1.789-4 4-4h56c2.211 0 4 1.791 4 4v152c0 2.209-1.789 4-4 4z" fill="#4c241d"/></g><g fill="#4c241d"><circle cx="234" cy="42" r="4.529"/><circle cx="254" cy="74" r="4.529"/><path d="m132 244c-2.209 0-4-1.791-4-4v-152c0-2.209 1.791-4 4-4 2.211 0 4 1.791 4 4v152c0 2.209-1.789 4-4 4z"/><path d="m208 168h-152c-2.209 0-4-1.791-4-4s1.791-4 4-4h152c2.211 0 4 1.791 4 4s-1.789 4-4 4z"/><path d="m185.738 221.74c-1.023 0-2.047-.391-2.828-1.172l-107.478-107.48c-1.562-1.562-1.562-4.094 0-5.656s4.094-1.562 5.656 0l107.479 107.48c1.562 1.562 1.562 4.094 0 5.656-.782.782-1.805 1.172-2.829 1.172z"/><path d="m78.26 221.74c-1.023 0-2.047-.391-2.828-1.172-1.562-1.562-1.562-4.094 0-5.656l107.479-107.48c1.562-1.562 4.094-1.562 5.656 0s1.562 4.094 0 5.656l-107.479 107.48c-.781.782-1.805 1.172-2.828 1.172z"/></g><g><circle cx="132" cy="164" fill="#e66353" r="16"/><path d="m132 184c-11.027 0-20-8.973-20-20s8.973-20 20-20 20 8.973 20 20-8.973 20-20 20zm0-32c-6.617 0-12 5.383-12 12s5.383 12 12 12 12-5.383 12-12-5.383-12-12-12z" fill="#4c241d"/></g></g></svg>