<svg id="star" enable-background="new 0 0 300 300" height="512" viewBox="0 0 300 300" width="512" xmlns="http://www.w3.org/2000/svg"><g><circle cx="124" cy="138" fill="#efefd2" r="92"/><g fill="#4c241d"><path d="m60 106c-8.824 0-16-7.178-16-16s7.176-16 16-16 16 7.178 16 16-7.176 16-16 16zm0-24c-4.41 0-8 3.588-8 8s3.59 8 8 8 8-3.588 8-8-3.59-8-8-8z"/><circle cx="226" cy="232" r="4.529"/><circle cx="118" cy="60" r="4.529"/><circle cx="90" cy="48" r="4.529"/></g><g><path d="m252 138-53.159-2.215c-4.277-.178-6.297-5.359-3.271-8.385l9.949-9.949c4.595-4.595 5.273-12.154.924-16.982-4.637-5.15-12.577-5.306-17.415-.468l-10.428 10.428c-3.027 3.027-8.207 1.006-8.385-3.271l-2.215-53.158c0-6.627-5.373-12-12-12s-12 5.373-12 12l-2.215 53.159c-.178 4.277-5.359 6.297-8.385 3.271l-9.949-9.949c-4.595-4.595-12.154-5.273-16.982-.924-5.15 4.637-5.306 12.577-.468 17.415l10.429 10.429c3.027 3.027 1.006 8.207-3.271 8.385l-53.159 2.214c-6.627 0-12 5.373-12 12s5.373 12 12 12l53.159 2.215c4.277.178 6.297 5.359 3.271 8.385l-9.949 9.949c-4.595 4.595-5.273 12.154-.924 16.982 4.637 5.15 12.577 5.306 17.415.468l10.429-10.429c3.027-3.027 8.207-1.006 8.385 3.271l2.214 53.159c0 6.627 5.373 12 12 12s12-5.373 12-12l2.215-53.159c.178-4.277 5.359-6.297 8.385-3.271l9.949 9.949c4.595 4.595 12.154 5.273 16.982.925 5.15-4.637 5.306-12.578.468-17.415l-10.428-10.429c-3.027-3.027-1.006-8.207 3.271-8.385l53.158-2.215c6.627 0 12-5.373 12-12s-5.373-12-12-12z" fill="#ffce56"/><path d="m156 262c-8.824 0-16-7.178-16-16l-2.211-52.992c-.016-.395-.215-.67-.582-.814-.371-.146-.703-.076-.98.207l-10.43 10.428c-3.086 3.088-7.402 4.76-11.73 4.682-4.434-.115-8.512-1.998-11.484-5.303-5.688-6.316-5.219-16.195 1.07-22.486l9.949-9.949c.281-.281.348-.609.203-.979-.141-.369-.414-.564-.812-.582l-53.16-2.215h-.004c-8.657.001-15.829-7.177-15.829-15.997 0-8.822 7.176-16 16-16l52.992-2.211c.398-.018.672-.213.812-.582.145-.369.078-.697-.203-.977l-10.43-10.432c-3.09-3.09-4.793-7.367-4.68-11.734.117-4.43 2-8.506 5.301-11.48 6.316-5.693 16.195-5.225 22.484 1.068l9.949 9.949c.277.281.609.346.98.205.367-.145.566-.42.582-.816l2.215-53.156c-.002-8.656 7.174-15.834 15.998-15.834s16 7.178 16 16l2.211 52.992c.016.395.215.67.582.814.363.141.699.074.98-.207l10.43-10.428c3.086-3.09 7.359-4.797 11.73-4.682 4.434.115 8.512 1.998 11.484 5.303 5.688 6.316 5.219 16.195-1.07 22.486l-9.949 9.949c-.281.281-.348.609-.203.979.141.369.414.564.812.582l53.083 2.212c8.781.049 15.91 7.207 15.91 16 0 8.822-7.176 16-16 16l-52.992 2.211c-.398.018-.672.213-.812.582-.145.369-.078.697.203.977l10.43 10.432c3.09 3.09 4.793 7.365 4.68 11.732-.117 4.432-1.996 8.51-5.301 11.484-6.32 5.686-16.199 5.221-22.484-1.07l-9.949-9.949c-.281-.285-.617-.352-.98-.205-.367.145-.566.42-.582.816l-2.215 53.156c.002 8.656-7.174 15.834-15.998 15.834zm-19.172-77.885c1.094 0 2.207.205 3.285.625 3.344 1.305 5.52 4.346 5.668 7.934l2.215 53.16c.004 4.578 3.594 8.166 8.004 8.166s8-3.588 8-8l2.219-53.324c.148-3.59 2.324-6.631 5.668-7.936 3.355-1.305 7.004-.531 9.543 2l9.949 9.951c3.227 3.225 8.371 3.576 11.477.781 1.652-1.49 2.598-3.531 2.656-5.748s-.773-4.301-2.34-5.867l-10.43-10.43c-2.539-2.537-3.309-6.193-2.004-9.541 1.309-3.348 4.348-5.52 7.934-5.668l53.16-2.215c4.578-.003 8.168-3.591 8.168-8.003s-3.59-8-8-8c-.055 0-.109-.002-.168-.004l-53.16-2.215c-3.586-.148-6.625-2.32-7.934-5.668-1.305-3.348-.535-7.004 2.004-9.543l9.949-9.947c3.223-3.227 3.574-8.375.781-11.479-1.492-1.654-3.531-2.6-5.746-2.656-2.195-.029-4.297.771-5.867 2.34l-10.43 10.43c-2.539 2.539-6.191 3.305-9.543 2.002-3.344-1.305-5.52-4.346-5.668-7.934l-2.215-53.16c-.003-4.578-3.593-8.166-8.003-8.166s-8 3.588-8 8l-2.219 53.324c-.148 3.59-2.324 6.631-5.668 7.936-3.348 1.307-7 .537-9.543-2l-9.949-9.951c-3.215-3.221-8.371-3.576-11.477-.779-1.652 1.49-2.598 3.531-2.656 5.744-.059 2.217.773 4.303 2.34 5.869l10.43 10.43c2.539 2.537 3.309 6.193 2.004 9.541-1.309 3.348-4.348 5.52-7.934 5.668l-53.16 2.215c-4.578.003-8.168 3.591-8.168 8.003s3.59 8 8 8l53.328 2.219c3.586.148 6.625 2.32 7.934 5.668 1.305 3.348.535 7.004-2.004 9.543l-9.949 9.947c-3.223 3.227-3.574 8.375-.781 11.479 1.492 1.654 3.531 2.6 5.746 2.656 2.211.09 4.301-.77 5.867-2.34l10.43-10.43c1.722-1.721 3.952-2.627 6.257-2.627z" fill="#4c241d"/></g><g><path d="m144 138h24v24h-24z" fill="#e66353" transform="matrix(.707 -.707 .707 .707 -60.375 154.243)"/><path d="m156 170.971c-1.062 0-2.078-.422-2.828-1.172l-16.969-16.971c-1.562-1.562-1.562-4.094 0-5.656l16.969-16.971c1.5-1.5 4.156-1.5 5.656 0l16.969 16.971c1.562 1.562 1.562 4.094 0 5.656l-16.969 16.971c-.75.75-1.766 1.172-2.828 1.172zm-11.312-20.971 11.312 11.314 11.312-11.314-11.312-11.314z" fill="#4c241d"/></g></g></svg>