<svg id="star2" enable-background="new 0 0 300 300" height="512" viewBox="0 0 300 300" width="512" xmlns="http://www.w3.org/2000/svg"><g><circle cx="122.302" cy="134.193" fill="#efefd2" r="92"/><g fill="#4c241d"><path d="m42 94.336c-8.824 0-16-7.178-16-16s7.176-16 16-16 16 7.178 16 16-7.176 16-16 16zm0-24c-4.41 0-8 3.588-8 8s3.59 8 8 8 8-3.588 8-8-3.59-8-8-8z"/><circle cx="172.262" cy="42.193" r="4.529"/><circle cx="248" cy="235.807" r="4.529"/></g><g><path d="m265.176 152.992-54.676-23.632 6.453-58.141c.348-3.141-1.188-6.191-3.914-7.787-2.723-1.596-6.141-1.441-8.703.404l-48.336 34.692-48.336-34.691c-2.562-1.84-5.98-2.002-8.703-.404-2.727 1.596-4.262 4.646-3.914 7.787l6.453 58.141-54.676 23.633c-2.926 1.266-4.824 4.151-4.824 7.342s1.898 6.076 4.824 7.344l54.676 23.633-6.453 58.141c-.348 3.141 1.188 6.191 3.914 7.787 2.719 1.592 6.137 1.436 8.703-.404l48.336-34.692 48.336 34.691c1.387.996 3.023 1.5 4.664 1.5 1.391 0 2.789-.363 4.039-1.096 2.727-1.596 4.262-4.646 3.914-7.787l-6.453-58.141 54.676-23.633c2.926-1.268 4.824-4.152 4.824-7.344s-1.898-6.075-4.824-7.343zm-113.84-38.117c2.789 2 6.539 2 9.328 0l38.402-27.562-4.67 42.096-38.383 21.726-38.41-21.726-4.67-42.096zm-81.176 45.461 39.467-17.059 30.145 17.051-30.148 17.065zm90.504 45.461c-1.395-1-3.027-1.5-4.664-1.5s-3.27.5-4.664 1.5l-38.402 27.562 4.67-42.096 38.417-21.745 38.371 21.704 4.675 42.137zm41.747-28.418-30.149-17.053 30.115-17.046 39.463 17.057z" fill="#ffce56"/><path d="m209 262.336c-2.527 0-4.949-.779-6.996-2.252l-46.004-33.015-46.004 33.018c-3.848 2.76-8.977 2.996-13.055.605-4.086-2.391-6.391-6.975-5.871-11.678l6.129-55.203-51.961-22.459c-4.398-1.906-7.238-6.229-7.238-11.016s2.84-9.109 7.234-11.014l51.965-22.461-6.129-55.201c-.52-4.705 1.785-9.289 5.871-11.682 4.074-2.393 9.203-2.16 13.055.607l46.004 33.019 46.004-33.018c3.836-2.764 8.965-3.006 13.059-.605 4.082 2.391 6.387 6.975 5.867 11.678l-6.129 55.203 51.961 22.459c.004 0 .004.002.004.002 4.395 1.904 7.234 6.227 7.234 11.014s-2.84 9.109-7.234 11.014l-51.965 22.461 6.129 55.201c.52 4.705-1.785 9.289-5.871 11.682-1.832 1.073-3.93 1.641-6.059 1.641zm-53-44.191c.816 0 1.637.25 2.332.75l48.336 34.691c1.254.898 3.008.986 4.348.203 1.367-.799 2.137-2.328 1.961-3.896l-6.453-58.139c-.191-1.746.777-3.416 2.391-4.113l54.676-23.633c1.461-.635 2.41-2.076 2.41-3.672s-.945-3.035-2.41-3.672l-54.676-23.633c-1.613-.697-2.582-2.367-2.391-4.113l6.453-58.141c.176-1.566-.594-3.096-1.957-3.893-1.367-.805-3.07-.719-4.348.197l-48.34 34.695c-1.391 1-3.273 1-4.664 0l-48.336-34.691c-1.285-.92-2.984-1.002-4.348-.205-1.367.801-2.137 2.33-1.961 3.898l6.453 58.139c.191 1.746-.777 3.416-2.391 4.113l-54.675 23.634c-1.461.635-2.41 2.076-2.41 3.672s.949 3.037 2.414 3.674l54.672 23.631c1.613.697 2.582 2.367 2.391 4.113l-6.453 58.141c-.176 1.566.594 3.096 1.957 3.893 1.363.801 3.074.715 4.352-.201l48.336-34.691c.694-.501 1.515-.751 2.331-.751zm43.066 19.215c-.82 0-1.637-.252-2.332-.75l-38.402-27.562c-1.367-.98-3.297-.98-4.664 0l-38.402 27.562c-1.285.92-2.988 1-4.352.203-1.363-.799-2.129-2.324-1.957-3.895l4.672-42.096c.145-1.275.887-2.406 2.008-3.039l38.414-21.746c1.219-.691 2.719-.693 3.938-.002l38.371 21.705c1.117.633 1.863 1.764 2.008 3.041l4.676 42.137c.172 1.57-.594 3.096-1.957 3.895-.626.365-1.325.547-2.021.547zm-43.066-37.063c2.523 0 4.941.777 6.996 2.25l31.105 22.324-3.461-31.174-34.621-19.584-34.664 19.623-3.457 31.135 31.105-22.324c2.056-1.473 4.474-2.25 6.997-2.25zm-46.375-18.904c-.539 0-1.078-.109-1.586-.328l-39.465-17.057c-1.465-.633-2.414-2.076-2.414-3.672s.949-3.039 2.414-3.672l39.465-17.059c1.148-.49 2.465-.424 3.555.189l30.148 17.051c1.254.711 2.031 2.041 2.031 3.482s-.773 2.771-2.031 3.48l-30.148 17.064c-.61.348-1.289.522-1.969.522zm-29.383-21.057 29.145 12.596 22.266-12.602-22.266-12.592zm122.168 21.043c-.68 0-1.359-.174-1.969-.518l-30.148-17.055c-1.254-.711-2.031-2.041-2.031-3.482s.773-2.771 2.031-3.48l30.113-17.045c1.09-.617 2.406-.688 3.555-.191l39.465 17.057c1.465.633 2.414 2.076 2.414 3.672s-.949 3.039-2.414 3.672l-39.43 17.043c-.508.218-1.047.327-1.586.327zm-22.027-21.056 22.266 12.596 29.109-12.582-29.145-12.596zm-24.371-5.188c-.68 0-1.359-.172-1.969-.518l-38.406-21.727c-1.117-.633-1.863-1.764-2.008-3.041l-4.672-42.096c-.172-1.57.594-3.096 1.957-3.895 1.363-.797 3.066-.719 4.352.203l38.402 27.562c1.398 1 3.273 1 4.664 0l38.402-27.562c1.285-.922 2.988-1 4.352-.203 1.363.799 2.129 2.324 1.957 3.895l-4.672 42.096c-.145 1.275-.887 2.406-2.008 3.039l-38.383 21.727c-.609.346-1.289.52-1.968.52zm-34.657-28.201 34.656 19.605 34.633-19.605 3.457-31.133-31.105 22.324c-4.188 3-9.805 3-13.992 0l-31.105-22.324z" fill="#4c241d"/></g><g><path d="m131.716 136.045h48.568v48.568h-48.568z" fill="#e66353" transform="matrix(.707 -.707 .707 .707 -67.678 157.268)"/><path d="m156 198.672c-1.023 0-2.047-.391-2.828-1.172l-34.344-34.344c-.75-.75-1.172-1.768-1.172-2.828s.422-2.078 1.172-2.828l34.344-34.342c1.562-1.562 4.094-1.562 5.656 0l34.344 34.342c.75.75 1.172 1.768 1.172 2.828s-.422 2.078-1.172 2.828l-34.344 34.344c-.781.782-1.805 1.172-2.828 1.172zm-28.688-38.344 28.688 28.688 28.688-28.688-28.688-28.685z" fill="#4c241d"/></g></g></svg>