<svg id="table" enable-background="new 0 0 300 300" height="512" viewBox="0 0 300 300" width="512" xmlns="http://www.w3.org/2000/svg"><g><circle cx="124" cy="122" fill="#efefd2" r="92"/><path d="m244 250h-168c-2.209 0-4-1.789-4-4v-168c0-2.211 1.791-4 4-4h168c2.211 0 4 1.789 4 4v168c0 2.211-1.789 4-4 4zm-164-8h160v-160h-160z" fill="#4c241d"/><circle cx="134" cy="56" fill="#4c241d" r="4.529"/><circle cx="94" cy="36" fill="#4c241d" r="4.529"/><circle cx="38" cy="136" fill="#4c241d" r="4.529"/><g><circle cx="76" cy="78" fill="#e66353" r="20"/><path d="m76 102c-13.234 0-24-10.766-24-24s10.766-24 24-24 24 10.766 24 24-10.766 24-24 24zm0-40c-8.822 0-16 7.176-16 16s7.178 16 16 16 16-7.176 16-16-7.178-16-16-16z" fill="#4c241d"/></g><g><circle cx="244" cy="78" fill="#e66353" r="20"/><path d="m244 102c-13.234 0-24-10.766-24-24s10.766-24 24-24 24 10.766 24 24-10.766 24-24 24zm0-40c-8.824 0-16 7.176-16 16s7.176 16 16 16 16-7.176 16-16-7.176-16-16-16z" fill="#4c241d"/></g><g><circle cx="76" cy="246" fill="#e66353" r="20"/><path d="m76 270c-13.234 0-24-10.766-24-24s10.766-24 24-24 24 10.766 24 24-10.766 24-24 24zm0-40c-8.822 0-16 7.176-16 16s7.178 16 16 16 16-7.176 16-16-7.178-16-16-16z" fill="#4c241d"/></g><g><circle cx="244" cy="246" fill="#e66353" r="20"/><path d="m244 270c-13.234 0-24-10.766-24-24s10.766-24 24-24 24 10.766 24 24-10.766 24-24 24zm0-40c-8.824 0-16 7.176-16 16s7.176 16 16 16 16-7.176 16-16-7.176-16-16-16z" fill="#4c241d"/></g><g fill="#4c241d"><path d="m132 222c-2.209 0-4-1.789-4-4v-112c0-2.211 1.791-4 4-4s4 1.789 4 4v112c0 2.211-1.791 4-4 4z"/><path d="m160 222c-2.211 0-4-1.789-4-4v-112c0-2.211 1.789-4 4-4s4 1.789 4 4v112c0 2.211-1.789 4-4 4z"/><path d="m188 222c-2.211 0-4-1.789-4-4v-112c0-2.211 1.789-4 4-4s4 1.789 4 4v112c0 2.211-1.789 4-4 4z"/><path d="m216 194h-112c-2.209 0-4-1.789-4-4s1.791-4 4-4h112c2.211 0 4 1.789 4 4s-1.789 4-4 4z"/><path d="m216 166h-112c-2.209 0-4-1.789-4-4s1.791-4 4-4h112c2.211 0 4 1.789 4 4s-1.789 4-4 4z"/><path d="m216 138h-112c-2.209 0-4-1.789-4-4s1.791-4 4-4h112c2.211 0 4 1.789 4 4s-1.789 4-4 4z"/></g></g></svg>