<svg id="tags" enable-background="new 0 0 300 300" height="512" viewBox="0 0 300 300" width="512" xmlns="http://www.w3.org/2000/svg"><g><circle cx="150" cy="128" fill="#efefd2" r="92"/><path d="m214 80c-8.824 0-16-7.178-16-16s7.176-16 16-16 16 7.178 16 16-7.176 16-16 16zm0-24c-4.41 0-8 3.588-8 8s3.59 8 8 8 8-3.588 8-8-3.59-8-8-8z" fill="#4c241d"/><g><path d="m132 56c-38.66 0-70 31.34-70 70v102h140v-102c0-38.66-31.34-70-70-70z" fill="#ffce56"/><path d="m202 232h-140c-2.211 0-4-1.791-4-4v-102c0-40.805 33.195-74 74-74s74 33.195 74 74v102c0 2.209-1.789 4-4 4zm-136-8h132v-98c0-36.393-29.609-66-66-66s-66 29.607-66 66z" fill="#4c241d"/></g><g><path d="m173.987 260h28.013v-32l-70-52-70 52v32h88" fill="#e66353"/><path d="m202 264h-28.012c-2.211 0-4-1.791-4-4s1.789-4 4-4h24.012v-25.988l-66-49.029-66 49.029v25.988h84c2.211 0 4 1.791 4 4s-1.789 4-4 4h-88c-2.211 0-4-1.791-4-4v-32c0-1.266.598-2.457 1.613-3.211l70-52c1.422-1.051 3.352-1.051 4.773 0l70 52c1.016.754 1.613 1.945 1.613 3.211v32c.001 2.209-1.788 4-3.999 4z" fill="#4c241d"/></g><path d="m201.996 204c-.828 0-1.664-.256-2.383-.789l-12.844-9.541c-1.773-1.316-2.141-3.822-.824-5.596 1.316-1.77 3.82-2.145 5.598-.826l12.844 9.541c1.773 1.316 2.141 3.822.824 5.596-.785 1.056-1.992 1.615-3.215 1.615zm-139.992 0c-1.223 0-2.43-.559-3.215-1.615-1.316-1.773-.949-4.279.824-5.596l11.562-8.588c1.777-1.322 4.277-.949 5.598.826 1.316 1.773.949 4.279-.824 5.596l-11.562 8.588c-.719.533-1.555.789-2.383.789zm24.406-18.129c-1.223 0-2.43-.559-3.215-1.615-1.316-1.773-.949-4.279.824-5.596l12.844-9.541c1.777-1.322 4.277-.947 5.598.826 1.316 1.773.949 4.279-.824 5.596l-12.844 9.541c-.719.533-1.555.789-2.383.789zm89.899-.953c-.828 0-1.664-.256-2.383-.789l-12.844-9.541c-1.773-1.316-2.141-3.822-.824-5.596 1.32-1.771 3.82-2.143 5.598-.826l12.844 9.541c1.773 1.316 2.141 3.822.824 5.596-.786 1.056-1.993 1.615-3.215 1.615zm-64.211-18.129c-1.223 0-2.43-.559-3.215-1.615-1.316-1.773-.949-4.279.824-5.596l12.844-9.541c1.777-1.32 4.277-.949 5.598.826 1.316 1.773.949 4.279-.824 5.596l-12.844 9.541c-.719.533-1.555.789-2.383.789zm38.523-.953c-.828 0-1.664-.256-2.383-.789l-12.844-9.541c-1.773-1.316-2.141-3.822-.824-5.596 1.316-1.771 3.816-2.146 5.598-.826l12.844 9.541c1.773 1.316 2.141 3.822.824 5.596-.785 1.056-1.992 1.615-3.215 1.615z" fill="#4c241d"/><circle cx="232" cy="94" fill="#4c241d" r="4.529"/><g><circle cx="132" cy="86" fill="#6b4f5b" r="10"/><path d="m132 100c-7.719 0-14-6.281-14-14s6.281-14 14-14 14 6.281 14 14-6.281 14-14 14zm0-20c-3.309 0-6 2.691-6 6s2.691 6 6 6 6-2.691 6-6-2.691-6-6-6z" fill="#4c241d"/></g></g></svg>