<svg id="texture" enable-background="new 0 0 300 300" height="512" viewBox="0 0 300 300" width="512" xmlns="http://www.w3.org/2000/svg"><g><circle cx="160" cy="133.265" fill="#efefd2" r="92"/><g fill="#4c241d"><path d="m240 81.265c-8.822 0-16-7.178-16-16s7.178-16 16-16 16 7.178 16 16-7.178 16-16 16zm0-24c-4.412 0-8 3.588-8 8s3.588 8 8 8 8-3.588 8-8-3.588-8-8-8z"/><circle cx="194" cy="39.265" r="4.529"/><circle cx="158" cy="59.265" r="4.529"/></g><g><path d="m48 81.265h168v180h-168z" fill="#fff"/><path d="m216 265.265h-168c-2.209 0-4-1.791-4-4v-180c0-2.209 1.791-4 4-4h168c2.209 0 4 1.791 4 4v180c0 2.209-1.791 4-4 4zm-164-8h160v-172h-160z" fill="#4c241d"/></g><g><path d="m48 177.265c25.405 0 46-20.595 46-46s-20.595-46-46-46z" fill="#ffce56"/><path d="m48 181.265c-2.209 0-4-1.791-4-4v-92c0-2.209 1.791-4 4-4 27.57 0 50 22.43 50 50s-22.43 50-50 50zm4-91.811v83.621c21.291-2.02 38-20 38-41.811s-16.709-39.79-38-41.81z" fill="#4c241d"/></g><g><path d="m192 261.265c0-39.765-32.236-72-72-72s-72 32.236-72 72z" fill="#b5a19c"/><path d="m192 265.265h-144c-2.209 0-4-1.791-4-4 0-41.906 34.094-76 76-76s76 34.094 76 76c0 2.209-1.791 4-4 4zm-139.883-8h135.766c-2.078-35.641-31.73-64-67.883-64s-65.805 28.359-67.883 64z" fill="#4c241d"/></g><path d="m216 117.265c-19.85 0-36-16.15-36-36 0-2.209 1.791-4 4-4s4 1.791 4 4c0 15.439 12.561 28 28 28 2.209 0 4 1.791 4 4s-1.791 4-4 4z" fill="#4c241d"/><g><circle cx="144" cy="141.265" fill="#ffce56" r="20"/><path d="m144 165.265c-13.234 0-24-10.766-24-24s10.766-24 24-24 24 10.766 24 24-10.766 24-24 24zm0-40c-8.822 0-16 7.178-16 16s7.178 16 16 16 16-7.178 16-16-7.178-16-16-16z" fill="#4c241d"/></g><g><path d="m108 81.265c0 8.837 7.163 16 16 16s16-7.163 16-16z" fill="#a9ba5a"/><path d="m124 101.265c-11.027 0-20-8.973-20-20 0-2.209 1.791-4 4-4h32c2.209 0 4 1.791 4 4 0 11.027-8.973 20-20 20zm-11.314-16c1.65 4.656 6.1 8 11.314 8s9.664-3.344 11.314-8z" fill="#4c241d"/></g><g><path d="m212 261.265c0-15.464-12.536-28-28-28s-28 12.536-28 28z" fill="#e66353"/><path d="m212 265.265h-56c-2.209 0-4-1.791-4-4 0-17.645 14.355-32 32-32s32 14.355 32 32c0 2.209-1.791 4-4 4zm-51.666-8h47.332c-1.91-11.336-11.795-20-23.666-20s-21.756 8.664-23.666 20z" fill="#4c241d"/></g><g><path d="m216 155.265c-15.464 0-28 12.536-28 28s12.536 28 28 28z" fill="#a9ba5a"/><path d="m216 215.265c-17.645 0-32-14.355-32-32s14.355-32 32-32c2.209 0 4 1.791 4 4v56c0 2.209-1.791 4-4 4zm-4-55.666c-11.336 1.91-20 11.795-20 23.666s8.664 21.756 20 23.666z" fill="#4c241d"/></g></g></svg>