<svg id="triangles" enable-background="new 0 0 300 300" height="512" viewBox="0 0 300 300" width="512" xmlns="http://www.w3.org/2000/svg"><g><circle cx="174" cy="124" fill="#efefd2" r="92"/><g><path d="m94 156-56 92h112z" fill="#ffce56"/><path d="m150 252h-112c-1.445 0-2.777-.779-3.488-2.041-.707-1.26-.68-2.805.07-4.039l56-92c1.453-2.383 5.383-2.383 6.836 0l56 92c.75 1.234.777 2.779.07 4.039-.711 1.262-2.043 2.041-3.488 2.041zm-104.883-8h97.766l-48.883-80.307z" fill="#4c241d"/></g><g><path d="m206 156-56 92h112z" fill="#a9ba5a"/><path d="m262 252h-112c-1.445 0-2.777-.779-3.488-2.041-.707-1.26-.68-2.805.07-4.039l56-92c1.453-2.383 5.383-2.383 6.836 0l56 92c.75 1.234.777 2.779.07 4.039-.711 1.262-2.043 2.041-3.488 2.041zm-104.883-8h97.766l-48.883-80.307z" fill="#4c241d"/></g><g><path d="m150 64-56 92h112z" fill="#e66353"/><path d="m206 160h-112c-1.445 0-2.777-.779-3.488-2.041-.707-1.26-.68-2.805.07-4.039l56-92c1.453-2.383 5.383-2.383 6.836 0l56 92c.75 1.234.777 2.779.07 4.039-.711 1.262-2.043 2.041-3.488 2.041zm-104.883-8h97.766l-48.883-80.307z" fill="#4c241d"/></g><g fill="#4c241d"><path d="m194 76c-8.824 0-16-7.178-16-16s7.176-16 16-16 16 7.178 16 16-7.176 16-16 16zm0-24c-4.41 0-8 3.588-8 8s3.59 8 8 8 8-3.588 8-8-3.59-8-8-8z"/><circle cx="240" cy="62" r="4.529"/><circle cx="228" cy="98" r="4.529"/><g><path d="m46 268h-8c-2.211 0-4-1.791-4-4s1.789-4 4-4h8c2.211 0 4 1.791 4 4s-1.789 4-4 4z"/><path d="m238 268h-16c-2.211 0-4-1.791-4-4s1.789-4 4-4h16c2.211 0 4 1.791 4 4s-1.789 4-4 4zm-32 0h-16c-2.211 0-4-1.791-4-4s1.789-4 4-4h16c2.211 0 4 1.791 4 4s-1.789 4-4 4zm-32 0h-16c-2.211 0-4-1.791-4-4s1.789-4 4-4h16c2.211 0 4 1.791 4 4s-1.789 4-4 4zm-32 0h-16c-2.211 0-4-1.791-4-4s1.789-4 4-4h16c2.211 0 4 1.791 4 4s-1.789 4-4 4zm-32 0h-16c-2.211 0-4-1.791-4-4s1.789-4 4-4h16c2.211 0 4 1.791 4 4s-1.789 4-4 4zm-32 0h-16c-2.211 0-4-1.791-4-4s1.789-4 4-4h16c2.211 0 4 1.791 4 4s-1.789 4-4 4z"/><path d="m262 268h-8c-2.211 0-4-1.791-4-4s1.789-4 4-4h8c2.211 0 4 1.791 4 4s-1.789 4-4 4z"/></g></g></g></svg>