<svg id="up" enable-background="new 0 0 300 300" height="512" viewBox="0 0 300 300" width="512" xmlns="http://www.w3.org/2000/svg"><g><circle cx="133.824" cy="128" fill="#efefd2" r="92"/><g><path d="m147.998 54.744-101.826 149.256h203.652z" fill="#ffce56"/><path d="m249.824 208h-203.652c-1.484 0-2.844-.82-3.535-2.131-.695-1.312-.605-2.898.23-4.123l101.828-149.256c1.492-2.188 5.117-2.18 6.609 0l101.824 149.256c.836 1.225.926 2.811.23 4.123-.69 1.311-2.049 2.131-3.534 2.131zm-196.082-8h188.512l-94.254-138.158z" fill="#4c241d"/></g><g><path d="m59.998 216-30 44h60z" fill="#b5a19c"/><path d="m90 264h-60c-1.484 0-2.844-.82-3.535-2.131-.695-1.311-.605-2.896.23-4.123l30-44c1.492-2.184 5.117-2.184 6.609 0l30 44c.836 1.227.926 2.812.23 4.123-.69 1.311-2.05 2.131-3.534 2.131zm-52.43-8h44.86l-22.43-32.9z" fill="#4c241d"/></g><g><path d="m119.998 216-30 44h60z" fill="#b5a19c"/><path d="m150 264h-60c-1.484 0-2.844-.82-3.535-2.131-.695-1.311-.605-2.896.23-4.123l30-44c1.492-2.184 5.117-2.184 6.609 0l30 44c.836 1.227.926 2.812.23 4.123-.69 1.311-2.05 2.131-3.534 2.131zm-52.43-8h44.859l-22.429-32.9z" fill="#4c241d"/></g><g><path d="m179.998 216-30 44h60z" fill="#b5a19c"/><path d="m210 264h-60c-1.484 0-2.844-.82-3.535-2.131-.695-1.311-.605-2.896.23-4.123l30-44c1.492-2.184 5.117-2.184 6.609 0l30 44c.836 1.227.926 2.812.23 4.123-.69 1.311-2.05 2.131-3.534 2.131zm-52.43-8h44.859l-22.429-32.9z" fill="#4c241d"/></g><g><path d="m239.998 216-30 44h60z" fill="#b5a19c"/><path d="m270 264h-60c-1.484 0-2.844-.82-3.535-2.131-.695-1.311-.605-2.896.23-4.123l30-44c1.492-2.184 5.117-2.184 6.609 0l30 44c.836 1.227.926 2.812.23 4.123-.69 1.311-2.05 2.131-3.534 2.131zm-52.43-8h44.859l-22.429-32.9z" fill="#4c241d"/></g><g fill="#4c241d"><path d="m69.824 84c-8.824 0-16-7.178-16-16s7.176-16 16-16 16 7.178 16 16-7.176 16-16 16zm0-24c-4.41 0-8 3.588-8 8s3.59 8 8 8 8-3.588 8-8-3.59-8-8-8z"/><circle cx="227.824" cy="78" r="4.529"/><path d="m147.824 115.471c-7.719 0-14-6.281-14-14s6.281-14 14-14 14 6.281 14 14-6.281 14-14 14zm0-20c-3.309 0-6 2.691-6 6s2.691 6 6 6 6-2.691 6-6-2.691-6-6-6z"/><path d="m147.824 152c-7.719 0-14-6.281-14-14s6.281-14 14-14 14 6.281 14 14-6.281 14-14 14zm0-20c-3.309 0-6 2.691-6 6s2.691 6 6 6 6-2.691 6-6-2.691-6-6-6z"/><path d="m147.824 188.529c-7.719 0-14-6.281-14-14s6.281-14 14-14 14 6.281 14 14-6.281 14-14 14zm0-20c-3.309 0-6 2.691-6 6s2.691 6 6 6 6-2.691 6-6-2.691-6-6-6z"/><circle cx="239.824" cy="102" r="4.529"/></g></g></svg>