<svg id="uparrows" enable-background="new 0 0 300 300" height="512" viewBox="0 0 300 300" width="512" xmlns="http://www.w3.org/2000/svg"><g><circle cx="125.912" cy="141.265" fill="#efefd2" r="92"/><g><path d="m88.086 85.265-30 44h60z" fill="#ffce56"/><path d="m118.086 133.265h-60c-1.482 0-2.844-.82-3.537-2.131-.691-1.311-.604-2.896.232-4.123l30-44c1.488-2.184 5.121-2.184 6.609 0l30 44c.836 1.227.924 2.812.232 4.123-.693 1.31-2.054 2.131-3.536 2.131zm-52.432-8h44.863l-22.432-32.9z" fill="#4c241d"/></g><g><path d="m160.086 85.265-30 44h60z" fill="#e66353"/><path d="m190.088 133.265h-60.002c-1.482 0-2.844-.82-3.537-2.131-.691-1.311-.604-2.898.232-4.123l30.002-44c.746-1.092 1.98-1.746 3.305-1.746 1.324 0 2.559.654 3.305 1.746l30 44c.836 1.227.926 2.812.23 4.123-.692 1.31-2.051 2.131-3.535 2.131zm-52.434-8h44.863l-22.43-32.9z" fill="#4c241d"/></g><g><path d="m232.086 85.265-30 44h60z" fill="#ffce56"/><path d="m262.088 133.265h-60c-1.484 0-2.844-.82-3.535-2.131-.695-1.311-.605-2.896.23-4.123l30-44c1.492-2.184 5.117-2.184 6.609 0l30 44c.836 1.227.926 2.812.23 4.123-.691 1.31-2.05 2.131-3.534 2.131zm-52.43-8h44.859l-22.43-32.9z" fill="#4c241d"/></g><g><path d="m88.086 145.265-30 44h60z" fill="#e66353"/><path d="m118.086 193.265h-60c-1.482 0-2.844-.82-3.537-2.131-.691-1.311-.604-2.896.232-4.123l30-44c1.488-2.184 5.121-2.184 6.609 0l30 44c.836 1.227.924 2.812.232 4.123-.693 1.31-2.054 2.131-3.536 2.131zm-52.432-8h44.863l-22.432-32.9z" fill="#4c241d"/></g><g><path d="m160.086 145.265-30 44h60z" fill="#ffce56"/><path d="m190.088 193.265h-60.002c-1.482 0-2.844-.82-3.537-2.131-.691-1.311-.604-2.898.232-4.123l30.002-44c.746-1.092 1.98-1.746 3.305-1.746 1.324 0 2.559.654 3.305 1.746l30 44c.836 1.227.926 2.812.23 4.123-.692 1.31-2.051 2.131-3.535 2.131zm-52.434-8h44.863l-22.43-32.9z" fill="#4c241d"/></g><g><path d="m232.086 145.265-30 44h60z" fill="#e66353"/><path d="m262.088 193.265h-60c-1.484 0-2.844-.82-3.535-2.131-.695-1.311-.605-2.896.23-4.123l30-44c1.492-2.184 5.117-2.184 6.609 0l30 44c.836 1.227.926 2.812.23 4.123-.691 1.31-2.05 2.131-3.534 2.131zm-52.43-8h44.859l-22.43-32.9z" fill="#4c241d"/></g><g><path d="m88.086 205.265-30 44h60z" fill="#ffce56"/><path d="m118.086 253.265h-60c-1.482 0-2.844-.82-3.537-2.131-.691-1.311-.604-2.896.232-4.123l30-44c1.488-2.184 5.121-2.184 6.609 0l30 44c.836 1.227.924 2.812.232 4.123-.693 1.31-2.054 2.131-3.536 2.131zm-52.432-8h44.863l-22.432-32.9z" fill="#4c241d"/></g><g><path d="m160.086 205.265-30 44h60z" fill="#e66353"/><path d="m190.088 253.265h-60.002c-1.482 0-2.844-.82-3.537-2.131-.691-1.311-.604-2.898.232-4.123l30.002-44c.746-1.092 1.98-1.746 3.305-1.746 1.324 0 2.559.654 3.305 1.746l30 44c.836 1.227.926 2.812.23 4.123-.692 1.31-2.051 2.131-3.535 2.131zm-52.434-8h44.863l-22.43-32.9z" fill="#4c241d"/></g><g><path d="m232.086 205.265-30 44h60z" fill="#ffce56"/><path d="m262.088 253.265h-60c-1.484 0-2.844-.82-3.535-2.131-.695-1.311-.605-2.896.23-4.123l30-44c1.492-2.184 5.117-2.184 6.609 0l30 44c.836 1.227.926 2.812.23 4.123-.691 1.31-2.05 2.131-3.534 2.131zm-52.43-8h44.859l-22.43-32.9z" fill="#4c241d"/></g><g fill="#4c241d"><circle cx="111.912" cy="59.265" r="4.529"/><circle cx="71.912" cy="51.265" r="4.529"/><circle cx="43.912" cy="147.265" r="4.529"/><circle cx="195.912" cy="211.265" r="4.529"/></g></g></svg>