<svg id="way" enable-background="new 0 0 300 300" height="512" viewBox="0 0 300 300" width="512" xmlns="http://www.w3.org/2000/svg"><g><circle cx="124" cy="122" fill="#efefd2" r="92"/><g fill="#4c241d"><path d="m244 250h-168c-1.617 0-3.078-.973-3.695-2.469-.621-1.496-.277-3.215.867-4.359l161.172-161.172h-158.344c-2.211 0-4-1.789-4-4s1.789-4 4-4h168c1.617 0 3.078.973 3.695 2.469.621 1.496.277 3.215-.867 4.359l-161.172 161.172h158.344c2.211 0 4 1.789 4 4s-1.789 4-4 4z"/><circle cx="130" cy="112" r="4.529"/><circle cx="94" cy="36" r="4.529"/><circle cx="38" cy="136" r="4.529"/></g><g><circle cx="76" cy="78" fill="#a9ba5a" r="20"/><path d="m76 102c-13.234 0-24-10.766-24-24s10.766-24 24-24 24 10.766 24 24-10.766 24-24 24zm0-40c-8.824 0-16 7.176-16 16s7.176 16 16 16 16-7.176 16-16-7.176-16-16-16z" fill="#4c241d"/></g><g><circle cx="160" cy="78" fill="#a9ba5a" r="20"/><path d="m160 102c-13.234 0-24-10.766-24-24s10.766-24 24-24 24 10.766 24 24-10.766 24-24 24zm0-40c-8.824 0-16 7.176-16 16s7.176 16 16 16 16-7.176 16-16-7.176-16-16-16z" fill="#4c241d"/></g><g><circle cx="160" cy="246" fill="#a9ba5a" r="20"/><path d="m160 270c-13.234 0-24-10.766-24-24s10.766-24 24-24 24 10.766 24 24-10.766 24-24 24zm0-40c-8.824 0-16 7.176-16 16s7.176 16 16 16 16-7.176 16-16-7.176-16-16-16z" fill="#4c241d"/></g><g><circle cx="244" cy="78" fill="#a9ba5a" r="20"/><path d="m244 102c-13.234 0-24-10.766-24-24s10.766-24 24-24 24 10.766 24 24-10.766 24-24 24zm0-40c-8.824 0-16 7.176-16 16s7.176 16 16 16 16-7.176 16-16-7.176-16-16-16z" fill="#4c241d"/></g><g><circle cx="76" cy="162" fill="#e66353" r="20"/><path d="m76 186c-13.234 0-24-10.766-24-24s10.766-24 24-24 24 10.766 24 24-10.766 24-24 24zm0-40c-8.824 0-16 7.176-16 16s7.176 16 16 16 16-7.176 16-16-7.176-16-16-16z" fill="#4c241d"/></g><g><circle cx="160" cy="162" fill="#ffce56" r="20"/><path d="m160 186c-13.234 0-24-10.766-24-24s10.766-24 24-24 24 10.766 24 24-10.766 24-24 24zm0-40c-8.824 0-16 7.176-16 16s7.176 16 16 16 16-7.176 16-16-7.176-16-16-16z" fill="#4c241d"/></g><g><circle cx="244" cy="162" fill="#e66353" r="20"/><path d="m244 186c-13.234 0-24-10.766-24-24s10.766-24 24-24 24 10.766 24 24-10.766 24-24 24zm0-40c-8.824 0-16 7.176-16 16s7.176 16 16 16 16-7.176 16-16-7.176-16-16-16z" fill="#4c241d"/></g><g><circle cx="76" cy="246" fill="#a9ba5a" r="20"/><path d="m76 270c-13.234 0-24-10.766-24-24s10.766-24 24-24 24 10.766 24 24-10.766 24-24 24zm0-40c-8.824 0-16 7.176-16 16s7.176 16 16 16 16-7.176 16-16-7.176-16-16-16z" fill="#4c241d"/></g><g><circle cx="244" cy="246" fill="#a9ba5a" r="20"/><path d="m244 270c-13.234 0-24-10.766-24-24s10.766-24 24-24 24 10.766 24 24-10.766 24-24 24zm0-40c-8.824 0-16 7.176-16 16s7.176 16 16 16 16-7.176 16-16-7.176-16-16-16z" fill="#4c241d"/></g></g></svg>