<svg id="barcode" enable-background="new 0 0 300 300" height="512" viewBox="0 0 300 300" width="512" xmlns="http://www.w3.org/2000/svg"><g><circle cx="126" cy="138" fill="#efefd2" r="92"/><g fill="#4c241d"><path d="m142 62c-8.824 0-16-7.178-16-16s7.176-16 16-16 16 7.178 16 16-7.176 16-16 16zm0-24c-4.41 0-8 3.588-8 8s3.59 8 8 8 8-3.588 8-8-3.59-8-8-8z"/><circle cx="56" cy="140" r="4.529"/><circle cx="92" cy="48" r="4.529"/><path d="m246 254h-160c-2.211 0-4-1.791-4-4v-160c0-2.209 1.789-4 4-4h160c2.211 0 4 1.791 4 4v160c0 2.209-1.789 4-4 4zm-156-8h152v-152h-152z"/></g><g><path d="m96.16 106h-20.32c-3.225 0-5.84-2.615-5.84-5.84v-20.32c0-3.225 2.615-5.84 5.84-5.84h20.32c3.225 0 5.84 2.615 5.84 5.84v20.32c0 3.225-2.615 5.84-5.84 5.84z" fill="#e66353"/><path d="m96.16 110h-20.32c-5.426 0-9.84-4.414-9.84-9.84v-20.32c0-5.426 4.414-9.84 9.84-9.84h20.32c5.426 0 9.84 4.414 9.84 9.84v20.32c0 5.426-4.414 9.84-9.84 9.84zm-20.32-32c-1.016 0-1.84.826-1.84 1.84v20.32c0 1.014.824 1.84 1.84 1.84h20.32c1.016 0 1.84-.826 1.84-1.84v-20.32c0-1.014-.824-1.84-1.84-1.84z" fill="#4c241d"/></g><g><path d="m256.16 106h-20.32c-3.225 0-5.84-2.615-5.84-5.84v-20.32c0-3.225 2.615-5.84 5.84-5.84h20.32c3.225 0 5.84 2.615 5.84 5.84v20.32c0 3.225-2.615 5.84-5.84 5.84z" fill="#e66353"/><path d="m256.16 110h-20.32c-5.426 0-9.84-4.414-9.84-9.84v-20.32c0-5.426 4.414-9.84 9.84-9.84h20.32c5.426 0 9.84 4.414 9.84 9.84v20.32c0 5.426-4.414 9.84-9.84 9.84zm-20.32-32c-1.016 0-1.84.826-1.84 1.84v20.32c0 1.014.824 1.84 1.84 1.84h20.32c1.016 0 1.84-.826 1.84-1.84v-20.32c0-1.014-.824-1.84-1.84-1.84z" fill="#4c241d"/></g><g><path d="m256.16 266h-20.32c-3.225 0-5.84-2.615-5.84-5.84v-20.32c0-3.225 2.615-5.84 5.84-5.84h20.32c3.225 0 5.84 2.615 5.84 5.84v20.32c0 3.225-2.615 5.84-5.84 5.84z" fill="#e66353"/><path d="m256.16 270h-20.32c-5.426 0-9.84-4.414-9.84-9.84v-20.32c0-5.426 4.414-9.84 9.84-9.84h20.32c5.426 0 9.84 4.414 9.84 9.84v20.32c0 5.426-4.414 9.84-9.84 9.84zm-20.32-32c-1.016 0-1.84.826-1.84 1.84v20.32c0 1.014.824 1.84 1.84 1.84h20.32c1.016 0 1.84-.826 1.84-1.84v-20.32c0-1.014-.824-1.84-1.84-1.84z" fill="#4c241d"/></g><g><path d="m96.16 266h-20.32c-3.225 0-5.84-2.615-5.84-5.84v-20.32c0-3.225 2.615-5.84 5.84-5.84h20.32c3.225 0 5.84 2.615 5.84 5.84v20.32c0 3.225-2.615 5.84-5.84 5.84z" fill="#e66353"/><path d="m96.16 270h-20.32c-5.426 0-9.84-4.414-9.84-9.84v-20.32c0-5.426 4.414-9.84 9.84-9.84h20.32c5.426 0 9.84 4.414 9.84 9.84v20.32c0 5.426-4.414 9.84-9.84 9.84zm-20.32-32c-1.016 0-1.84.826-1.84 1.84v20.32c0 1.014.824 1.84 1.84 1.84h20.32c1.016 0 1.84-.826 1.84-1.84v-20.32c0-1.014-.824-1.84-1.84-1.84z" fill="#4c241d"/></g><g><path d="m114 118h12v104h-12z" fill="#ffce56"/><path d="m126 226h-12c-2.211 0-4-1.791-4-4v-104c0-2.209 1.789-4 4-4h12c2.211 0 4 1.791 4 4v104c0 2.209-1.789 4-4 4zm-8-8h4v-96h-4z" fill="#4c241d"/></g><g><path d="m178 118h12v104h-12z" fill="#ffce56"/><path d="m190 226h-12c-2.211 0-4-1.791-4-4v-104c0-2.209 1.789-4 4-4h12c2.211 0 4 1.791 4 4v104c0 2.209-1.789 4-4 4zm-8-8h4v-96h-4z" fill="#4c241d"/></g><g><path d="m138 118h16v104h-16z" fill="#ffce56"/><path d="m154 226h-16c-2.211 0-4-1.791-4-4v-104c0-2.209 1.789-4 4-4h16c2.211 0 4 1.791 4 4v104c0 2.209-1.789 4-4 4zm-12-8h8v-96h-8z" fill="#4c241d"/></g><g><path d="m202 118h16v104h-16z" fill="#ffce56"/><path d="m218 226h-16c-2.211 0-4-1.791-4-4v-104c0-2.209 1.789-4 4-4h16c2.211 0 4 1.791 4 4v104c0 2.209-1.789 4-4 4zm-12-8h8v-96h-8z" fill="#4c241d"/></g><path d="m166 226c-2.211 0-4-1.791-4-4v-104c0-2.209 1.789-4 4-4s4 1.791 4 4v104c0 2.209-1.789 4-4 4z" fill="#4c241d"/></g></svg>