<svg id="cancel" enable-background="new 0 0 300 300" height="512" viewBox="0 0 300 300" width="512" xmlns="http://www.w3.org/2000/svg"><g><circle cx="174" cy="132" fill="#efefd2" r="92"/><g fill="#4c241d"><path d="m66 216c-8.822 0-16-7.176-16-16s7.178-16 16-16 16 7.176 16 16-7.178 16-16 16zm0-24c-4.412 0-8 3.59-8 8s3.588 8 8 8 8-3.59 8-8-3.588-8-8-8z"/><circle cx="220" cy="162" r="4.529"/><circle cx="244" cy="134" r="4.529"/></g><g><path d="m167.456 125.574-25.456 25.455-25.456-25.455-16.97 16.97 25.455 25.456-25.455 25.456 16.97 16.97 25.456-25.455 25.456 25.455 16.97-16.97-25.455-25.456 25.455-25.456z" fill="#e66353"/><path d="m167.455 214.426c-1.023 0-2.047-.391-2.828-1.172l-22.627-22.629-22.627 22.629c-1.562 1.562-4.094 1.562-5.656 0l-16.971-16.969c-.75-.75-1.172-1.766-1.172-2.828s.422-2.078 1.172-2.828l22.627-22.629-22.627-22.629c-.75-.75-1.172-1.766-1.172-2.828s.422-2.078 1.172-2.828l16.971-16.969c1.562-1.562 4.094-1.562 5.656 0l22.627 22.629 22.627-22.629c1.562-1.562 4.094-1.562 5.656 0l16.971 16.969c.75.75 1.172 1.766 1.172 2.828s-.422 2.078-1.172 2.828l-22.627 22.629 22.627 22.629c.75.75 1.172 1.766 1.172 2.828s-.422 2.078-1.172 2.828l-16.971 16.969c-.781.781-1.804 1.172-2.828 1.172zm-25.455-33.457c1.061 0 2.078.422 2.828 1.172l22.627 22.629 11.314-11.312-22.627-22.629c-1.562-1.562-1.562-4.094 0-5.656l22.627-22.629-11.314-11.312-22.627 22.629c-1.5 1.5-4.156 1.5-5.656 0l-22.627-22.629-11.314 11.312 22.627 22.629c1.562 1.562 1.562 4.094 0 5.656l-22.627 22.629 11.314 11.312 22.627-22.629c.75-.75 1.767-1.172 2.828-1.172z" fill="#4c241d"/></g><g><path d="m38 80h208v24h-208z" fill="#ffce56"/><path d="m246 108h-208c-2.209 0-4-1.789-4-4v-24c0-2.211 1.791-4 4-4h208c2.209 0 4 1.789 4 4v24c0 2.211-1.791 4-4 4zm-204-8h200v-16h-200z" fill="#4c241d"/></g><g><path d="m38 232h208v24h-208z" fill="#a9ba5a"/><path d="m246 260h-208c-2.209 0-4-1.789-4-4v-24c0-2.211 1.791-4 4-4h208c2.209 0 4 1.789 4 4v24c0 2.211-1.791 4-4 4zm-204-8h200v-16h-200z" fill="#4c241d"/></g></g></svg>