<svg id="circles" enable-background="new 0 0 300 300" height="512" viewBox="0 0 300 300" width="512" xmlns="http://www.w3.org/2000/svg"><g><circle cx="172" cy="126" fill="#efefd2" r="92"/><path d="m236 74c-8.824 0-16-7.178-16-16s7.176-16 16-16 16 7.178 16 16-7.176 16-16 16zm0-24c-4.41 0-8 3.588-8 8s3.59 8 8 8 8-3.588 8-8-3.59-8-8-8z" fill="#4c241d"/><g><circle cx="140" cy="162" fill="#a9ba5a" r="100"/><path d="m140 266c-2.211 0-4.152-1.791-4.152-4s1.637-4 3.848-4h.304c4.938 0 9.891-.377 14.723-1.121 2.191-.316 4.227 1.162 4.562 3.344.336 2.184-1.16 4.227-3.344 4.562-5.234.807-10.597 1.215-15.941 1.215zm-15.93-1.264c-.211 0-.424-.016-.639-.051-5.365-.859-10.699-2.152-15.855-3.842-2.1-.688-3.242-2.947-2.555-5.047.689-2.096 2.949-3.242 5.047-2.555 4.756 1.559 9.678 2.75 14.629 3.545 2.182.35 3.666 2.4 3.318 4.582-.316 1.968-2.015 3.368-3.945 3.368zm46.528-3.502c-1.691 0-3.262-1.082-3.809-2.779-.676-2.104.48-4.355 2.586-5.031 4.777-1.533 9.461-3.459 13.93-5.721 1.984-1 4.379-.211 5.379 1.762.996 1.971.207 4.377-1.762 5.375-4.844 2.453-9.926 4.539-15.102 6.201-.406.131-.816.193-1.222.193zm-76.25-6.236c-.615 0-1.24-.143-1.826-.443-4.826-2.48-9.492-5.365-13.871-8.568-1.783-1.305-2.172-3.809-.867-5.59 1.303-1.785 3.807-2.172 5.59-.867 4.043 2.959 8.352 5.621 12.809 7.912 1.963 1.01 2.738 3.422 1.727 5.387-.711 1.378-2.111 2.169-3.562 2.169zm104.164-7.891c-1.242 0-2.465-.574-3.246-1.658-1.293-1.791-.891-4.291.898-5.584 4.066-2.938 7.93-6.217 11.48-9.746 1.566-1.559 4.098-1.549 5.656.018 1.559 1.568 1.551 4.1-.016 5.658-3.848 3.822-8.031 7.373-12.434 10.555-.709.511-1.526.757-2.338.757zm-129.395-10.57c-1.027 0-2.053-.393-2.836-1.178-3.832-3.852-7.389-8.031-10.568-12.424-1.295-1.789-.895-4.291.895-5.586 1.793-1.299 4.289-.895 5.586.895 2.936 4.055 6.219 7.914 9.76 11.471 1.557 1.566 1.551 4.1-.014 5.658-.782.775-1.801 1.164-2.823 1.164zm151.578-11.469c-.82 0-1.648-.252-2.359-.773-1.781-1.307-2.168-3.809-.863-5.592 2.961-4.039 5.629-8.346 7.926-12.801 1.016-1.965 3.426-2.736 5.387-1.721 1.965 1.012 2.734 3.426 1.723 5.389-2.488 4.824-5.375 9.488-8.582 13.863-.786 1.069-2.001 1.635-3.232 1.635zm-169.916-13.865c-1.459 0-2.865-.799-3.57-2.189-2.463-4.85-4.555-9.928-6.217-15.094-.678-2.104.479-4.357 2.58-5.033 2.107-.682 4.357.477 5.033 2.58 1.535 4.766 3.465 9.451 5.736 13.926 1 1.971.215 4.377-1.756 5.377-.579.294-1.198.433-1.806.433zm184.233-13.928c-.414 0-.832-.066-1.25-.201-2.098-.689-3.238-2.951-2.551-5.049 1.562-4.752 2.758-9.672 3.559-14.627.352-2.182 2.398-3.682 4.586-3.311 2.184.354 3.664 2.406 3.312 4.588-.867 5.365-2.164 10.697-3.855 15.846-.555 1.686-2.118 2.754-3.801 2.754zm-193.834-15.841c-1.938 0-3.641-1.412-3.947-3.389-.817-5.272-1.231-10.67-1.231-16.045 0-2.209 1.789-4.102 4-4.102 2.209 0 3.998 1.689 3.998 3.898h-4l4 .088c.002 5.082.385 10.068 1.139 14.938.338 2.182-1.158 4.227-3.342 4.564-.207.032-.412.048-.617.048zm198.818-15.231c-2.207 0-4-1.59-4-3.799l.004-.52c0-4.924-.391-9.973-1.168-14.896-.34-2.182 1.148-4.229 3.332-4.572 2.172-.352 4.227 1.146 4.574 3.33.836 5.332 1.262 10.801 1.262 16.254 0 2.209-1.793 4.203-4.004 4.203zm-198.746-16.041c-.211 0-.422-.016-.635-.049-2.182-.348-3.668-2.398-3.322-4.58.855-5.369 2.143-10.705 3.826-15.857.689-2.1 2.959-3.24 5.045-2.561 2.1.688 3.246 2.945 2.561 5.045-1.555 4.754-2.742 9.676-3.529 14.631-.315 1.969-2.014 3.371-3.946 3.371zm193.887-15.047c-1.688 0-3.254-1.076-3.805-2.768-1.543-4.75-3.48-9.432-5.766-13.916-1-1.969-.219-4.377 1.75-5.379 1.969-1.012 4.379-.221 5.383 1.75 2.469 4.855 4.57 9.928 6.242 15.076.684 2.1-.469 4.357-2.57 5.039-.41.134-.824.198-1.234.198zm-184.186-14.672c-.613 0-1.238-.141-1.822-.441-1.965-1.008-2.74-3.418-1.732-5.385 2.475-4.824 5.354-9.494 8.555-13.881 1.301-1.785 3.805-2.172 5.59-.871 1.783 1.303 2.174 3.805.871 5.59-2.955 4.049-5.613 8.359-7.898 12.814-.71 1.381-2.111 2.174-3.564 2.174zm169.979-13.197c-1.238 0-2.457-.57-3.238-1.648-2.945-4.049-6.238-7.902-9.785-11.451-1.562-1.562-1.562-4.094 0-5.656s4.094-1.562 5.656 0c3.844 3.844 7.41 8.018 10.598 12.404 1.301 1.787.906 4.289-.883 5.588-.712.515-1.532.763-2.348.763zm-151.541-12.057c-1.025 0-2.051-.393-2.832-1.176-1.561-1.564-1.557-4.096.008-5.656 3.844-3.834 8.02-7.395 12.412-10.582 1.785-1.293 4.291-.898 5.588.889 1.297 1.789.898 4.289-.889 5.588-4.057 2.943-7.914 6.23-11.463 9.77-.779.779-1.803 1.167-2.824 1.167zm129.431-10.066c-.816 0-1.641-.25-2.352-.768-4.055-2.951-8.367-5.605-12.82-7.885-1.969-1.006-2.746-3.416-1.742-5.383 1.012-1.967 3.422-2.742 5.383-1.738 4.828 2.469 9.5 5.342 13.891 8.541 1.785 1.301 2.18 3.803.879 5.588-.786 1.075-2.004 1.645-3.239 1.645zm-104.109-8.301c-1.459 0-2.863-.799-3.568-2.186-1.002-1.969-.219-4.377 1.75-5.379 4.85-2.467 9.924-4.564 15.086-6.234 2.107-.67 4.355.477 5.037 2.576.68 2.102-.475 4.357-2.576 5.037-4.762 1.539-9.445 3.475-13.918 5.75-.583.298-1.202.436-1.811.436zm76.273-5.927c-.41 0-.828-.064-1.238-.199-4.762-1.549-9.688-2.732-14.637-3.514-2.18-.346-3.672-2.393-3.324-4.576.34-2.178 2.391-3.662 4.574-3.326 5.363.848 10.699 2.129 15.863 3.811 2.102.684 3.25 2.939 2.566 5.041-.55 1.688-2.116 2.763-3.804 2.763zm-46.525-3.696c-1.938 0-3.639-1.41-3.947-3.385-.34-2.182 1.154-4.227 3.338-4.568 5.306-.826 10.74-1.246 16.15-1.246 2.211 0 4.051 1.791 4.051 4s-1.738 4-3.949 4h-.102c-4.996 0-10.016.387-14.92 1.152-.207.032-.416.047-.621.047z" fill="#4c241d"/></g><g><path d="m180.006 122.551c-11.34-7.911-25.131-12.551-40.006-12.551-38.66 0-70 31.34-70 70s31.34 70 70 70 70-31.34 70-70c0-16.139-5.462-31.003-14.638-42.843" fill="#e66353"/><path d="m140 254c-40.805 0-74-33.195-74-74s33.195-74 74-74c15.227 0 29.852 4.588 42.297 13.27 1.812 1.264 2.254 3.758.992 5.57-1.262 1.805-3.75 2.256-5.57.992-11.094-7.74-24.141-11.832-37.719-11.832-36.393 0-66 29.607-66 66s29.607 66 66 66c36.391 0 66-29.607 66-66 0-14.777-4.77-28.746-13.797-40.393-1.355-1.746-1.035-4.26.711-5.613 1.742-1.354 4.262-1.031 5.609.711 10.125 13.065 15.477 28.727 15.477 45.295 0 40.805-33.195 74-74 74z" fill="#4c241d"/></g><g><circle cx="140" cy="210" fill="#ffce56" r="40"/><path d="m140 254c-24.262 0-44-19.738-44-44s19.738-44 44-44 44 19.738 44 44-19.738 44-44 44zm0-80c-19.85 0-36 16.15-36 36s16.15 36 36 36c19.852 0 36-16.15 36-36s-16.148-36-36-36z" fill="#4c241d"/></g><g fill="#4c241d"><circle cx="250" cy="256" r="4.529"/><circle cx="62" cy="48" r="4.529"/><circle cx="186" cy="52" r="4.529"/></g></g></svg>