<svg id="compass" enable-background="new 0 0 300 300" height="512" viewBox="0 0 300 300" width="512" xmlns="http://www.w3.org/2000/svg"><g><circle cx="167.5" cy="132" fill="#efefd2" r="92"/><g><circle cx="136.5" cy="164" fill="#a9ba5a" r="92"/><path d="m136.5 260c-52.934 0-96-43.066-96-96s43.066-96 96-96 96 43.066 96 96-43.066 96-96 96zm0-184c-48.523 0-88 39.477-88 88s39.477 88 88 88 88-39.477 88-88-39.477-88-88-88z" fill="#4c241d"/></g><path d="m136.275 239.998c-.004 0-.008 0-.012 0-5.697-.016-11.381-.668-16.895-1.938-2.152-.496-3.496-2.645-3-4.797.498-2.148 2.635-3.49 4.797-3 4.932 1.137 10.018 1.721 15.121 1.734 2.209.006 3.994 1.803 3.988 4.012-.004 2.206-1.795 3.989-3.999 3.989zm16.016-1.736c-1.832 0-3.482-1.266-3.9-3.127-.482-2.156.875-4.295 3.031-4.777 4.955-1.107 9.795-2.783 14.379-4.977 1.984-.953 4.379-.111 5.336 1.883.953 1.994.109 4.383-1.883 5.336-5.129 2.453-10.541 4.324-16.086 5.566-.293.064-.588.096-.877.096zm-47.221-5.467c-.588 0-1.184-.129-1.746-.402-5.1-2.479-9.932-5.539-14.365-9.098-1.723-1.383-1.998-3.9-.615-5.623 1.385-1.721 3.906-1.996 5.623-.615 3.967 3.186 8.293 5.924 12.854 8.141 1.986.965 2.814 3.359 1.85 5.346-.692 1.423-2.118 2.251-3.601 2.251zm76.127-8.344c-1.178 0-2.346-.52-3.137-1.514-1.371-1.732-1.082-4.248.648-5.621 3.984-3.158 7.619-6.77 10.805-10.729 1.389-1.719 3.902-1.988 5.625-.609 1.721 1.385 1.994 3.904.609 5.625-3.559 4.422-7.617 8.453-12.066 11.982-.736.583-1.613.866-2.484.866zm-101.101-11.699c-1.178 0-2.344-.518-3.135-1.512-3.539-4.455-6.576-9.307-9.027-14.416-.955-1.992-.113-4.381 1.877-5.338 1.994-.955 4.379-.113 5.338 1.877 2.191 4.572 4.91 8.912 8.078 12.9 1.373 1.73 1.084 4.246-.645 5.621-.736.585-1.613.868-2.486.868zm121.166-13.258c-.59 0-1.186-.129-1.75-.404-1.986-.969-2.812-3.361-1.844-5.348 2.227-4.57 3.936-9.395 5.08-14.338.498-2.154 2.646-3.498 4.797-2.996 2.152.498 3.494 2.645 2.996 4.797-1.279 5.533-3.191 10.93-5.682 16.041-.693 1.422-2.117 2.248-3.597 2.248zm-135.012-15.627c-1.83 0-3.48-1.262-3.898-3.123-1.229-5.461-1.852-11.094-1.852-16.744 0-2.209 1.791-4.074 4-4.074s4 1.717 4 3.926v.148c0 5.061.557 10.104 1.656 14.99.484 2.154-.869 4.295-3.025 4.779-.295.067-.59.098-.881.098zm142.25-15.719c-2.209 0-4-1.641-4-3.85v-.298c0-5.107-.568-10.197-1.688-15.125-.49-2.154.859-4.297 3.014-4.787 2.168-.486 4.299.861 4.787 3.014 1.252 5.51 1.887 11.195 1.887 16.898 0 2.209-1.791 4.148-4 4.148zm-142.176-16.306c-.297 0-.598-.031-.898-.102-2.152-.494-3.498-2.639-3.004-4.793 1.27-5.537 3.17-10.938 5.648-16.051.965-1.99 3.357-2.812 5.344-1.855 1.988.963 2.818 3.355 1.855 5.344-2.217 4.572-3.916 9.4-5.051 14.352-.423 1.851-2.072 3.105-3.894 3.105zm135.071-15.072c-1.486 0-2.916-.834-3.605-2.264-2.201-4.568-4.928-8.902-8.105-12.881-1.377-1.727-1.096-4.244.631-5.623 1.73-1.373 4.244-1.092 5.623.631 3.549 4.447 6.596 9.293 9.059 14.4.959 1.99.123 4.381-1.867 5.34-.561.27-1.152.397-1.736.397zm-121.122-13.749c-.877 0-1.76-.287-2.498-.877-1.725-1.381-2.004-3.898-.623-5.623 3.549-4.43 7.6-8.471 12.043-12.008 1.73-1.377 4.246-1.092 5.621.637 1.377 1.729 1.09 4.246-.637 5.621-3.979 3.168-7.605 6.785-10.781 10.75-.791.987-1.953 1.5-3.125 1.5zm101.147-11.292c-.877 0-1.758-.285-2.496-.875-3.973-3.176-8.303-5.906-12.869-8.113-1.99-.961-2.822-3.354-1.861-5.342.963-1.99 3.35-2.826 5.342-1.861 5.105 2.467 9.945 5.518 14.385 9.066 1.725 1.381 2.006 3.896.627 5.623-.792.988-1.954 1.502-3.128 1.502zm-76.08-8.655c-1.488 0-2.92-.836-3.607-2.268-.957-1.992-.117-4.381 1.873-5.338 5.129-2.463 10.537-4.348 16.07-5.6 2.152-.482 4.297.865 4.785 3.02.486 2.156-.865 4.297-3.02 4.785-4.949 1.119-9.783 2.803-14.371 5.006-.558.268-1.148.395-1.73.395zm47.25-5.269c-.295 0-.594-.031-.895-.1-4.93-1.127-10.02-1.699-15.123-1.703-2.211-.002-4-1.793-3.998-4.002s1.793-3.998 4-3.998h.002c5.703.004 11.389.645 16.9 1.902 2.154.492 3.5 2.637 3.01 4.791-.424 1.854-2.072 3.11-3.896 3.11z" fill="#4c241d"/><g><path d="m44.99 73.49 45.255 90.51 45.255-45.255z" fill="#e66353"/><path d="m90.246 168c-.213 0-.428-.018-.641-.051-1.27-.207-2.361-1.01-2.938-2.16l-45.256-90.51c-.77-1.541-.467-3.4.75-4.617 1.215-1.217 3.076-1.52 4.617-.75l90.51 45.256c1.15.576 1.953 1.668 2.16 2.938.205 1.27-.211 2.561-1.121 3.469l-45.254 45.254c-.755.755-1.774 1.171-2.827 1.171zm-36.31-85.564 37.406 74.812 37.406-37.406z" fill="#4c241d"/></g><g><path d="m226.01 254.51-90.51-45.255 45.255-45.255z" fill="#e66353"/><path d="m226.008 258.51c-.607 0-1.219-.139-1.787-.422l-90.51-45.256c-1.15-.576-1.953-1.668-2.16-2.938-.205-1.27.211-2.561 1.121-3.469l45.254-45.254c.91-.906 2.213-1.316 3.469-1.121 1.27.207 2.361 1.01 2.938 2.16l45.256 90.51c.77 1.541.467 3.4-.75 4.617-.769.768-1.792 1.173-2.831 1.173zm-83.756-50.352 74.812 37.406-37.406-74.812z" fill="#4c241d"/></g><g><path d="m226.01 73.49-45.255 90.51-45.255-45.255z" fill="#ffce56"/><path d="m180.754 168c-1.053 0-2.072-.416-2.828-1.172l-45.254-45.254c-.91-.908-1.326-2.199-1.121-3.469.207-1.27 1.01-2.361 2.16-2.938l90.51-45.256c1.545-.77 3.402-.467 4.617.75 1.217 1.217 1.52 3.076.75 4.617l-45.256 90.51c-.576 1.15-1.668 1.953-2.938 2.16-.212.034-.427.052-.64.052zm-38.502-48.158 37.406 37.406 37.406-74.812z" fill="#4c241d"/></g><g><path d="m44.99 254.51 90.51-45.255-45.255-45.255z" fill="#ffce56"/><path d="m44.992 258.51c-1.039 0-2.062-.404-2.83-1.172-1.217-1.217-1.52-3.076-.75-4.617l45.256-90.51c.576-1.15 1.668-1.953 2.938-2.16 1.266-.207 2.559.213 3.469 1.121l45.254 45.254c.91.908 1.326 2.199 1.121 3.469-.207 1.27-1.01 2.361-2.16 2.938l-90.51 45.256c-.569.282-1.182.421-1.788.421zm46.35-87.758-37.406 74.812 74.812-37.406z" fill="#4c241d"/></g><g fill="#4c241d"><path d="m135.5 180c-8.822 0-16-7.178-16-16s7.178-16 16-16 16 7.178 16 16-7.178 16-16 16zm0-24c-4.412 0-8 3.588-8 8s3.588 8 8 8 8-3.588 8-8-3.588-8-8-8z"/><circle cx="245.5" cy="102" r="4.529"/><circle cx="245.5" cy="62" r="4.529"/><circle cx="197.5" cy="58" r="4.529"/></g></g></svg>