<svg id="cross" enable-background="new 0 0 300 300" height="512" viewBox="0 0 300 300" width="512" xmlns="http://www.w3.org/2000/svg"><g><circle cx="132" cy="134.735" fill="#efefd2" r="92"/><g fill="#4c241d"><path d="m80 86.735c-8.822 0-16-7.178-16-16s7.178-16 16-16 16 7.178 16 16-7.178 16-16 16zm0-24c-4.412 0-8 3.588-8 8s3.588 8 8 8 8-3.588 8-8-3.588-8-8-8z"/><circle cx="138" cy="48.735" r="4.529"/><circle cx="250" cy="240.735" r="4.529"/><circle cx="222" cy="252.735" r="4.529"/></g><g><path d="m94 118.735v80l70 40 70-40v-80l-70-40z" fill="#e66353"/><path d="m164 242.735c-.686 0-1.369-.176-1.984-.527l-70-40c-1.246-.711-2.016-2.037-2.016-3.473v-80c0-1.436.77-2.762 2.016-3.473l70-40c1.23-.703 2.738-.703 3.969 0l70 40c1.246.711 2.016 2.037 2.016 3.473v80c0 1.436-.77 2.762-2.016 3.473l-70 40c-.616.351-1.299.527-1.985.527zm-66-46.32 66 37.713 66-37.713v-75.359l-66-37.713-66 37.713z" fill="#4c241d"/></g><g><path d="m108 126.735v64l56 32 56-32v-64l-56-32z" fill="#ffce56"/><path d="m164 226.735c-.686 0-1.369-.176-1.984-.527l-56-32c-1.246-.711-2.016-2.037-2.016-3.473v-64c0-1.436.77-2.762 2.016-3.473l56-32c1.23-.703 2.738-.703 3.969 0l56 32c1.246.711 2.016 2.037 2.016 3.473v64c0 1.436-.77 2.762-2.016 3.473l-56 32c-.616.351-1.299.527-1.985.527zm-52-38.32 52 29.713 52-29.713v-59.359l-52-29.713-52 29.713z" fill="#4c241d"/></g><g><path d="m256 138.735h-72v-72h-40v72h-72v40h72v72h40v-72h72z" fill="#a9ba5a"/><path d="m184 254.735h-40c-2.209 0-4-1.791-4-4v-68h-68c-2.209 0-4-1.791-4-4v-40c0-2.209 1.791-4 4-4h68v-68c0-2.209 1.791-4 4-4h40c2.209 0 4 1.791 4 4v68h68c2.209 0 4 1.791 4 4v40c0 2.209-1.791 4-4 4h-68v68c0 2.209-1.791 4-4 4zm-36-8h32v-68c0-2.209 1.791-4 4-4h68v-32h-68c-2.209 0-4-1.791-4-4v-68h-32v68c0 2.209-1.791 4-4 4h-68v32h68c2.209 0 4 1.791 4 4z" fill="#4c241d"/></g><path d="m184 194.735c-2.209 0-4-1.791-4-4v-28c0-2.209 1.791-4 4-4s4 1.791 4 4v28c0 2.209-1.791 4-4 4z" fill="#4c241d"/><path d="m144 190.735c-2.209 0-4-1.791-4-4v-24c0-2.209 1.791-4 4-4s4 1.791 4 4v24c0 2.209-1.791 4-4 4z" fill="#4c241d"/></g></svg>