<?xml version="1.0" encoding="iso-8859-1"?>
<!-- Generator: Adobe Illustrator 21.0.0, SVG Export Plug-In . SVG Version: 6.00 Build 0)  -->
<svg xmlns="http://www.w3.org/2000/svg" xmlns:xlink="http://www.w3.org/1999/xlink" version="1.1" id="Capa_1" x="0px" y="0px" viewBox="0 0 512 512" style="enable-background:new 0 0 512 512;" xml:space="preserve" width="512" height="512">
<g>
	<g>
		<path style="fill:#EDF5FF;" d="M256,512c-68.38,0-132.667-26.628-181.02-74.981C26.629,388.668,0,324.381,0,256.001    s26.629-132.668,74.981-181.02C123.333,26.628,187.62,0,256,0c68.38,0,132.667,26.628,181.019,74.981    C485.372,123.333,512,187.621,512,256.001s-26.628,132.667-74.981,181.019C388.667,485.372,324.38,512,256,512z"/>
	</g>
	<g>
		<path style="fill:#D7E9FF;" d="M256,512V0c68.38,0,132.667,26.628,181.019,74.981C485.372,123.333,512,187.621,512,256.001    s-26.628,132.667-74.981,181.019C388.667,485.372,324.38,512,256,512z"/>
	</g>
	<g>
		<path style="fill:#6598EA;" d="M332.605,262.11H179.396c-69.331,0-125.736,56.405-125.736,125.736v25.037    c6.55,8.413,13.661,16.476,21.321,24.136C123.333,485.372,187.62,512,256,512c68.38,0,132.667-26.628,181.019-74.981    c7.661-7.66,14.772-15.724,21.322-24.137v-25.036C458.341,318.516,401.936,262.11,332.605,262.11z"/>
	</g>
	<g>
		<path style="fill:#326ED3;" d="M332.605,262.11H256v168.836V512c68.38,0,132.667-26.628,181.019-74.981    c7.661-7.66,14.772-15.724,21.322-24.137v-25.036C458.341,318.516,401.936,262.11,332.605,262.11z"/>
	</g>
	<g>
		<polygon style="fill:#F3C86A;" points="256,430.946 179.396,262.11 332.605,262.11   "/>
	</g>
	<g>
		<polygon style="fill:#FDAB29;" points="256,430.946 256,262.11 332.605,262.11   "/>
	</g>
	<g>
		<polygon style="fill:none;" points="332.553,262.11 179.396,262.11 255.975,430.889   "/>
		<path style="fill:#326ED3;" d="M255.975,430.889L179.396,262.11c-24.45,0-47.287,7.022-66.615,19.145l55.724,79.305h-26.958    L256,512l-0.052-81.054L255.975,430.889z"/>
		<path style="fill:#0841A3;" d="M343.444,360.56l55.74-79.328c-19.32-12.109-42.144-19.122-66.579-19.122h-0.052l-76.579,168.779    l-0.026,0.057L256,512l114.401-151.44H343.444z"/>
	</g>
	<g>
		<path style="fill:#FD9593;" d="M256,292.319c-63.109,0-114.453-51.343-114.453-114.452c0-63.11,51.343-114.453,114.453-114.453    c63.109,0,114.452,51.343,114.452,114.453C370.453,240.976,319.109,292.319,256,292.319z"/>
	</g>
	<g>
		<path style="fill:#FC5755;" d="M256,292.319V63.414c63.109,0,114.452,51.343,114.452,114.453    C370.453,240.976,319.109,292.319,256,292.319z"/>
	</g>
</g>















</svg>
