<svg id="add" enable-background="new 0 0 300 300" height="512" viewBox="0 0 300 300" width="512" xmlns="http://www.w3.org/2000/svg"><g><circle cx="152" cy="129.265" fill="#efefd2" r="92"/><path d="m252 77.265c-8.824 0-16-7.176-16-16s7.176-16 16-16 16 7.176 16 16-7.176 16-16 16zm0-24c-4.41 0-8 3.59-8 8s3.59 8 8 8 8-3.59 8-8-3.59-8-8-8z" fill="#4c241d"/><g><circle cx="136" cy="161.265" fill="#a9ba5a" r="100"/><path d="m136 265.265c-2.211 0-4.152-1.789-4.152-4s1.641-4 3.852-4h.3c4.945 0 9.898-.379 14.723-1.125 2.199-.332 4.23 1.16 4.566 3.34.336 2.184-1.16 4.23-3.34 4.566-5.23.809-10.597 1.219-15.949 1.219zm-15.93-1.266c-.207 0-.418-.016-.633-.051-5.355-.852-10.688-2.141-15.855-3.836-2.098-.688-3.242-2.949-2.555-5.047.688-2.098 2.949-3.242 5.047-2.555 4.766 1.562 9.684 2.754 14.621 3.539 2.18.348 3.668 2.395 3.32 4.578-.312 1.97-2.011 3.372-3.945 3.372zm46.532-3.504c-1.691 0-3.262-1.082-3.809-2.777-.676-2.102.48-4.355 2.586-5.031 4.773-1.531 9.457-3.457 13.93-5.723 1.973-1.016 4.379-.211 5.375 1.758 1 1.973.211 4.379-1.758 5.375-4.848 2.457-9.93 4.547-15.102 6.207-.406.129-.816.191-1.222.191zm-76.25-6.234c-.613 0-1.238-.141-1.824-.441-4.82-2.477-9.488-5.359-13.875-8.57-1.781-1.305-2.168-3.805-.863-5.59 1.301-1.781 3.797-2.176 5.59-.863 4.047 2.961 8.355 5.621 12.805 7.906 1.965 1.012 2.738 3.422 1.73 5.387-.712 1.378-2.11 2.171-3.563 2.171zm104.164-7.891c-1.242 0-2.465-.574-3.246-1.656-1.293-1.793-.891-4.293.898-5.586 4.062-2.934 7.926-6.215 11.48-9.746 1.566-1.562 4.098-1.551 5.656.016s1.551 4.102-.016 5.656c-3.852 3.828-8.035 7.383-12.434 10.559-.709.511-1.526.757-2.338.757zm-129.399-10.566c-1.027 0-2.055-.395-2.836-1.176-3.824-3.844-7.379-8.023-10.566-12.426-1.297-1.793-.898-4.293.891-5.586 1.793-1.301 4.293-.895 5.586.891 2.945 4.07 6.23 7.93 9.762 11.473 1.559 1.566 1.551 4.102-.012 5.66-.782.777-1.805 1.164-2.825 1.164zm151.582-11.473c-.82 0-1.648-.25-2.359-.773-1.781-1.305-2.168-3.809-.863-5.59 2.957-4.039 5.625-8.344 7.926-12.805 1.016-1.961 3.43-2.723 5.391-1.719 1.961 1.016 2.73 3.426 1.719 5.391-2.492 4.824-5.379 9.488-8.582 13.859-.786 1.071-2.001 1.637-3.232 1.637zm-169.918-13.863c-1.461 0-2.867-.801-3.57-2.191-2.461-4.848-4.555-9.926-6.219-15.09-.676-2.102.48-4.355 2.582-5.035 2.105-.66 4.355.48 5.035 2.582 1.535 4.766 3.465 9.449 5.734 13.926 1 1.969.215 4.375-1.758 5.375-.577.292-1.194.433-1.804.433zm184.231-13.93c-.414 0-.832-.062-1.25-.199-2.098-.691-3.238-2.949-2.551-5.051 1.562-4.75 2.758-9.672 3.559-14.625.352-2.18 2.391-3.68 4.586-3.312 2.184.352 3.664 2.406 3.312 4.586-.867 5.367-2.164 10.699-3.855 15.852-.555 1.683-2.118 2.749-3.801 2.749zm-193.832-15.84c-1.941 0-3.645-1.414-3.949-3.391-.817-5.277-1.231-10.675-1.231-16.042 0-2.211 1.789-4.102 4-4.102s4 1.688 4 3.898v.203c0 4.957.383 9.945 1.137 14.824.336 2.18-1.16 4.227-3.344 4.562-.207.033-.41.048-.613.048zm198.82-15.031c-2.211 0-4-1.789-4-4v-.402c0-5.039-.391-10.094-1.168-15.016-.34-2.184 1.148-4.23 3.332-4.574 2.172-.328 4.227 1.148 4.574 3.332.836 5.332 1.262 10.801 1.262 16.258v.402c0 2.211-1.789 4-4 4zm-198.754-16.234c-.207 0-.418-.016-.633-.051-2.18-.348-3.668-2.395-3.32-4.578.852-5.363 2.141-10.699 3.828-15.859.684-2.098 2.926-3.262 5.043-2.559 2.102.684 3.246 2.941 2.559 5.043-1.555 4.762-2.742 9.684-3.531 14.633-.313 1.968-2.012 3.371-3.946 3.371zm193.891-15.055c-1.688 0-3.254-1.074-3.805-2.766-1.543-4.75-3.48-9.434-5.762-13.91-1.004-1.969-.223-4.379 1.746-5.379 1.973-1.008 4.379-.223 5.379 1.746 2.473 4.852 4.574 9.922 6.246 15.074.684 2.102-.469 4.355-2.57 5.039-.41.134-.824.196-1.234.196zm-184.184-14.668c-.613 0-1.238-.141-1.82-.441-1.965-1.008-2.742-3.418-1.734-5.383 2.473-4.824 5.352-9.496 8.555-13.887 1.297-1.777 3.805-2.176 5.59-.871 1.785 1.301 2.176 3.805.871 5.59-2.957 4.051-5.613 8.363-7.898 12.816-.708 1.383-2.111 2.176-3.564 2.176zm169.977-13.199c-1.238 0-2.457-.57-3.238-1.648-2.941-4.043-6.234-7.898-9.785-11.453-1.562-1.562-1.562-4.098 0-5.656 1.562-1.562 4.094-1.562 5.656 0 3.848 3.852 7.41 8.023 10.598 12.406 1.301 1.785.906 4.289-.883 5.586-.712.515-1.532.765-2.348.765zm-151.539-12.051c-1.023 0-2.047-.391-2.828-1.172-1.562-1.562-1.562-4.098 0-5.656 3.832-3.832 8.012-7.391 12.418-10.59 1.785-1.301 4.285-.895 5.586.891 1.297 1.785.898 4.289-.891 5.586-4.066 2.949-7.922 6.238-11.457 9.77-.781.78-1.805 1.171-2.828 1.171zm129.429-10.074c-.816 0-1.641-.25-2.352-.766-4.055-2.957-8.367-5.609-12.82-7.883-1.969-1.008-2.746-3.418-1.742-5.383 1.008-1.965 3.43-2.738 5.383-1.742 4.824 2.469 9.496 5.34 13.891 8.539 1.785 1.301 2.18 3.805.879 5.59-.786 1.075-2.004 1.645-3.239 1.645zm-104.109-8.301c-1.457 0-2.859-.797-3.566-2.184-1.004-1.969-.223-4.379 1.746-5.379 4.836-2.465 9.914-4.562 15.09-6.234 2.121-.684 4.359.477 5.035 2.574.68 2.102-.473 4.359-2.574 5.035-4.777 1.543-9.457 3.477-13.918 5.75-.583.297-1.204.438-1.813.438zm76.273-5.926c-.41 0-.828-.062-1.238-.195-4.75-1.551-9.672-2.73-14.637-3.52-2.184-.344-3.672-2.395-3.324-4.574.34-2.18 2.391-3.684 4.574-3.324 5.379.852 10.719 2.133 15.863 3.809 2.102.688 3.25 2.945 2.566 5.043-.55 1.691-2.12 2.761-3.804 2.761zm-46.523-3.695c-1.938 0-3.641-1.41-3.949-3.383-.34-2.184 1.156-4.23 3.336-4.57 5.309-.828 10.742-1.246 16.152-1.246 2.211 0 4.051 1.789 4.051 4s-1.738 4-3.949 4h-.102c-4.996 0-10.016.387-14.918 1.152-.211.031-.418.047-.621.047z" fill="#4c241d"/></g><circle cx="214" cy="59.265" fill="#4c241d" r="4.529"/><circle cx="198" cy="39.265" fill="#4c241d" r="4.529"/><g><path d="m164 113.265h-20v-20h-16v20h-20v16h20v20h16v-20h20z" fill="#ffce56"/><path d="m144 153.265h-16c-2.211 0-4-1.789-4-4v-16h-16c-2.211 0-4-1.789-4-4v-16c0-2.211 1.789-4 4-4h16v-16c0-2.211 1.789-4 4-4h16c2.211 0 4 1.789 4 4v16h16c2.211 0 4 1.789 4 4v16c0 2.211-1.789 4-4 4h-16v16c0 2.211-1.789 4-4 4zm-12-8h8v-16c0-2.211 1.789-4 4-4h16v-8h-16c-2.211 0-4-1.789-4-4v-16h-8v16c0 2.211-1.789 4-4 4h-16v8h16c2.211 0 4 1.789 4 4z" fill="#4c241d"/></g><g><path d="m164 193.265h-20v-20h-16v20h-20v16h20v20h16v-20h20z" fill="#e66353"/><path d="m144 233.265h-16c-2.211 0-4-1.789-4-4v-16h-16c-2.211 0-4-1.789-4-4v-16c0-2.211 1.789-4 4-4h16v-16c0-2.211 1.789-4 4-4h16c2.211 0 4 1.789 4 4v16h16c2.211 0 4 1.789 4 4v16c0 2.211-1.789 4-4 4h-16v16c0 2.211-1.789 4-4 4zm-12-8h8v-16c0-2.211 1.789-4 4-4h16v-8h-16c-2.211 0-4-1.789-4-4v-16h-8v16c0 2.211-1.789 4-4 4h-16v8h16c2.211 0 4 1.789 4 4z" fill="#4c241d"/></g></g></svg>