<?xml version="1.0"?>
<svg xmlns="http://www.w3.org/2000/svg" xmlns:xlink="http://www.w3.org/1999/xlink" xmlns:svgjs="http://svgjs.com/svgjs" version="1.1" width="512" height="512" x="0" y="0" viewBox="0 0 512 512" style="enable-background:new 0 0 512 512" xml:space="preserve" class=""><g><linearGradient xmlns="http://www.w3.org/2000/svg" id="SVGID_1_" gradientUnits="userSpaceOnUse" x1="241" x2="241" y1="451" y2="61"><stop offset="0" stop-color="#fd5900"/><stop offset="1" stop-color="#ffde00"/></linearGradient><linearGradient xmlns="http://www.w3.org/2000/svg" id="SVGID_2_" gradientUnits="userSpaceOnUse" x1="301" x2="301" y1="361" y2="61"><stop stop-opacity="1" stop-color="#00ffb2" offset="0"/><stop stop-opacity="1" stop-color="#1653f9" offset="1"/></linearGradient><path xmlns="http://www.w3.org/2000/svg" d="m451.695 72.977c.2.977.305 1.987.305 3.023 0-1.036-.105-2.046-.305-3.023z" fill="#000000" data-original="#000000" style="" class=""/><path xmlns="http://www.w3.org/2000/svg" d="m437 61c1.036 0 2.047.105 3.023.305-.977-.2-1.987-.305-3.023-.305z" fill="#000000" data-original="#000000" style="" class=""/><path xmlns="http://www.w3.org/2000/svg" d="m451.695 72.977c-1.199-5.859-5.813-10.474-11.672-11.672 5.859 1.198 10.473 5.813 11.672 11.672z" fill="#000000" data-original="#000000" style="" class=""/><g xmlns="http://www.w3.org/2000/svg"><g><g><path d="m467 121h-15l-332-60h-45c-41.355 0-75 33.645-75 75v240c0 41.355 33.645 75 75 75h392c8.284 0 15-6.716 15-15v-300c0-8.284-6.716-15-15-15z" fill="url(#SVGID_1_)" data-original="url(#SVGID_1_)" style=""/></g></g><g><g><path d="m467 211h-151c-41.355 0-75 33.645-75 75s33.645 75 75 75h151c24.813 0 45-20.187 45-45v-60c0-24.813-20.187-45-45-45zm-151 90c-8.284 0-15-6.716-15-15s6.716-15 15-15 15 6.716 15 15-6.716 15-15 15zm136-225c0-1.036-.105-2.046-.305-3.023-1.199-5.859-5.813-10.474-11.672-11.672-.976-.2-1.987-.305-3.023-.305h-317c-16.569 0-30 13.432-30 30s13.431 30 30 30h332z" fill="url(#SVGID_2_)" data-original="url(#SVGID_2_)" style=""/></g></g></g></g></svg>
